<?xml version="1.0" encoding="UTF-8"?><svg viewbox="0 0 100 100"><path id="svg-icon-email" d="M 50,0 C 22.4,0 0,22.4 0,50 0,77.6 22.4,100 50,100 77.6,100 100,77.6 100,50 100,22.4 77.6,0 50,0 Z m 0,17.56 29.6,18.45 H 20.4 Z M 80,65.5 h 0 c 0,3 -2.398373,5.35743 -5.357422,5.35743 h -49.19282 c -2.959383,0 -5.357423,-2.39838 -5.357423,-5.35743 v -28.2888 c 0,-0.31301 0.032,-0.61734 0.084,-0.91635 l 28.269804,17.62796 c 0.03467,0.0217 0.07167,0.0363 0.107335,0.0563 0.03733,0.0207 0.07534,0.0407 0.113335,0.0597 0.19967,0.10301 0.405341,0.18601 0.615677,0.24034 0.02167,0 0.04333,0 0.065,0.0137 0.23067,0.0543 0.464341,0.0883 0.697678,0.0883 h 0 c 0,0 0,0 0,0 0.233337,0 0.467008,-0.033 0.697678,-0.0883 0.02167,0 0.04333,0 0.065,-0.0137 0.210004,-0.0543 0.415007,-0.13733 0.615677,-0.24034 0.038,-0.019 0.076,-0.039 0.113335,-0.0597 0.03533,-0.02 0.07267,0 0.1,0 L 79.872998,36.2696 c 0,0 0,0 0,1 z"/></svg>
