<?xml version="1.0" encoding="UTF-8"?><svg viewbox="0 0 100 100"><path id="svg-icon-facebook" d="M 50,0 C 22.430114,0 0,22.430112 0,50 0,77.567872 22.430114,100 50,100 77.567874,100 100,77.567872 100,50 100,22.430112 77.571902,0 50,0 Z M 62.434546,51.76025 h -8.134617 c 0,12.996456 0,28.993798 0,28.993798 H 42.246033 c 0,0 0,-15.842263 0,-28.993798 h -5.72988 V 41.512929 h 5.72988 v -6.628132 c 0,-4.74704 2.2557,-12.164666 12.164666,-12.164666 l 8.932169,0.03424 v 9.947233 c 0,0 -5.427778,0 -6.483123,0 -1.055345,0 -2.555788,0.527672 -2.555788,2.791428 v 6.021913 h 9.18392 z"/></svg>
