<?xml version="1.0" encoding="UTF-8"?><svg viewbox="0 0 100 100"><path id="svg-icon-twitter" style="fill:#000;" d="M 50,0 C 22.430114,0 0,22.430114 0,50 0,77.567872 22.430114,100 50,100 77.567874,100 100,77.567872 100,50 100,22.430114 77.571902,0 50,0 Z m 22.305245,38.556352 c 0.02215,0.495448 0.03424,0.994925 0.03424,1.494401 0,15.207847 -11.572545,32.737856 -32.745912,32.737856 -6.499235,0 -12.549344,-1.899219 -17.64078,-5.165955 0.900266,0.106743 1.816644,0.161121 2.745106,0.161121 5.393539,0 10.354064,-1.840812 14.293483,-4.926287 -5.035044,-0.09265 -9.286635,-3.419802 -10.750826,-7.993636 0.700878,0.132926 1.42391,0.207444 2.163055,0.207444 1.049303,0 2.068396,-0.136953 3.03311,-0.400789 -5.264642,-1.055346 -9.230242,-5.705712 -9.230242,-11.284541 0,-0.04834 0,-0.09869 0,-0.145009 1.550793,0.859986 3.325143,1.379602 5.210263,1.438009 -3.085475,-2.06034 -5.117619,-5.584871 -5.117619,-9.576654 0,-2.110691 0.565939,-4.088456 1.556836,-5.788287 5.673488,6.964473 14.15653,11.544349 23.719085,12.027713 -0.197373,-0.843873 -0.29606,-1.719971 -0.29606,-2.624265 0,-6.354225 5.151857,-11.508096 11.506082,-11.508096 3.311045,0 6.297833,1.397728 8.400468,3.633288 2.624265,-0.515589 5.081366,-1.470233 7.310884,-2.793443 -0.866028,2.688714 -2.684686,4.942399 -5.067269,6.368324 2.330219,-0.277935 4.553694,-0.894224 6.610006,-1.810602 -1.534681,2.304036 -3.486264,4.332152 -5.735922,5.949408 z"/></svg>
