<?xml version="1.0" encoding="UTF-8"?><svg viewbox="0 0 100 100"><path id="svg-icon-instagram" d="M 50,0 C 22.430305,0 0,22.430305 0,50 0,77.567681 22.430305,100 50,100 77.567681,100 100,77.567681 100,50 100,22.430305 77.571709,0 50,0 Z M 32.554479,21.563999 h 34.887106 c 6.062151,0 10.994414,4.928329 10.994414,10.99048 v 11.611992 23.279047 c 0,6.064165 -4.930344,10.994416 -10.990481,10.994416 H 32.554479 c -6.062149,0 -10.99048,-4.930251 -10.99048,-10.994416 V 44.166471 32.554479 c 0,-6.062149 4.928329,-10.99048 10.99048,-10.99048 z m 39.300606,6.55338 -1.254817,0 -8.386438,0.0236 0.03148,9.641256 9.609786,-0.03148 V 29.364384 Z M 50,39.988986 c -3.341232,0 -6.296279,1.652017 -8.118952,4.173549 -1.184234,1.643427 -1.890048,3.65438 -1.892062,5.833531 0,5.520384 4.484778,10 10,10 5.516356,0 10.014948,-4.49063 10.014948,-10.011014 0,-2.179152 -0.711856,-4.190102 -1.892062,-5.833529 -1.818645,-2.521533 -4.775801,-4.177485 -8.115019,-4.177485 z m -22.901424,4.177485 v 23.279047 c 0,3.008922 2.441129,5.448037 5.448037,5.448037 h 34.891039 c 3.00288,0 5.448037,-2.439115 5.448037,-5.448037 V 44.166471 H 64.396978 C 65.136117,45.966988 65.553457,47.93766 65.553457,50 65.553457,58.573613 58.577641,65.553457 50,65.553457 41.422358,65.553457 34.446543,58.573613 34.446543,50 c 0,-2.06234 0.41158,-4.03301 1.144677,-5.833529 z"/></svg>
