<?xml version="1.0" encoding="UTF-8"?><svg viewbox="0 0 100 100"><path id="svg-icon-tumblr" style="fill:#000" d="M 50,0 C 22.430114,0 0,22.430114 0,50 0,77.567872 22.430114,100 50,100 77.567874,100 100,77.567872 100,50 100,22.430114 77.571902,0 50,0 Z m 16.90365,73.83187 c -2.316121,1.091598 -4.422783,1.864979 -6.311932,2.304035 -1.88512,0.437042 -3.91525,0.660598 -6.106501,0.660598 -2.483284,0 -3.953516,-0.314187 -5.860791,-0.940546 -1.911303,-0.630388 -3.540643,-1.530652 -4.888021,-2.684685 -1.35342,-1.162088 -2.283896,-2.396681 -2.805526,-3.703778 -0.521631,-1.309111 -0.783453,-3.20833 -0.783453,-5.695642 V 44.707162 H 32.76001 v -7.701604 c 2.134859,-0.692822 4.610087,-1.685732 6.13067,-2.980746 1.526625,-1.299041 2.749134,-2.851849 3.665512,-4.668492 0.928462,-1.810602 1.560864,-4.124709 1.909289,-6.924192 h 7.731813 v 12.569483 h 12.569484 v 9.707565 H 52.197294 v 13.937001 c 0,3.151938 -0.04229,4.976638 0.294047,5.868848 0.334327,0.886168 1.164102,1.810602 2.068396,2.344316 1.210424,0.721019 2.577942,1.083542 4.126722,1.083542 2.753162,0 5.49424,-0.89221 8.213164,-2.682672 v 8.571659 z"/></svg>
