<?xml version="1.0" encoding="UTF-8"?><svg viewbox="0 0 100 100"><path id="svg-icon-youtube" style="fill:#000" d="M 50,0 C 22.389984,0 0,22.38998 0,50 0,77.61002 22.389984,100 50,100 77.610016,100 100,77.61002 100,50 100,22.38998 77.610016,0 50,0 Z m 0,28.125 c 0,0 19.558717,0 24.448395,1.3382 2.676392,0.72021 4.786681,2.83126 5.50766,5.50766 1.338195,4.88968 1.286316,15.08026 1.286316,15.08026 0,0 0,10.14023 -1.286316,15.0299 -0.720979,2.6764 -2.831268,4.78669 -5.50766,5.5069 C 69.558717,71.875 50,71.875 50,71.875 c 0,0 -19.5076,0 -24.448395,-1.3382 -2.676392,-0.72021 -4.786681,-2.83126 -5.50766,-5.50766 C 18.756866,60.19135 18.756866,50 18.756866,50 c 0,0 0,-10.13946 1.287079,-15.02914 0.720215,-2.6764 2.882385,-4.83857 5.50766,-5.55878 C 30.441283,28.125 50,28.125 50,28.125 Z M 43.772125,40.63263 V 59.36737 L 60.036469,50 Z"/></svg>
