<?xml version="1.0" encoding="UTF-8"?><svg viewbox="0 0 100 100"><path id="svg-icon-phone" style="fill:#000" d="M 50,0 C 22.388832,0 0,22.387739 0,50 0,77.611852 22.388832,100 50,100 77.61358,100 100,77.611642 100,50 100,22.387739 77.61358,0 50,0 Z M 76.404619,72.955532 72.401198,76.959765 C 71.686456,77.673472 69.593548,78.11885 69.52636,78.11885 56.861329,78.22931 44.666815,73.25458 35.706983,64.293957 26.722626,55.304484 21.742102,43.066534 21.875858,30.358896 c 0,0 0.458359,-2.038701 1.172482,-2.746019 l 4.003216,-4.003813 c 1.464932,-1.471724 4.278972,-2.136801 6.250283,-1.477294 l 0.84211,0.280909 c 1.96554,0.658887 4.029183,2.832168 4.572247,4.83438 l 2.013767,7.391 c 0.543064,2.007981 -0.189403,4.86468 -1.653923,6.329604 l -2.67307,2.673469 c 2.624431,9.71575 10.247728,17.340459 19.96517,19.971268 l 2.672039,-2.674089 c 1.471734,-1.471724 4.327405,-2.203571 6.331073,-1.661333 l 7.389996,2.020971 c 2.002638,0.550278 4.175512,2.60093 4.834196,4.565842 l 0.280909,0.854266 c 0.652913,1.965742 0,4.77915 -1.471734,6.237475 z"/></svg>
