<?xml version="1.0" encoding="UTF-8"?><svg viewbox="0 0 100 100"><path id="svg-icon-extinctionsymbol" style="fill:#000" d="m 21.976212,81.85567 c 7.480221,6.60825 17.309449,10.61855 28.075333,10.61855 10.765884,0 20.595111,-4.0103 28.075333,-10.61855 z M 19.740174,79.7316 45.051545,49.89691 19.881073,20.22829 C 12.30587,27.89113 7.6288657,38.42515 7.6288657,50.05154 c 0,11.55414 4.6190513,22.02944 12.1113083,29.68006 z M 22.330211,17.93814 H 77.772879 C 70.337833,11.51425 60.648429,7.62887 50.051545,7.62887 c -10.596884,0 -20.286288,3.88538 -27.721334,10.30927 z m 57.986062,2.38579 -25.470914,29.57298 25.612535,29.7374 c 7.436296,-7.64202 12.01633,-18.07753 12.01633,-29.58277 0,-11.57809 -4.638227,-22.07287 -12.157951,-29.72761 z M 50,100 C 22.385762,100 0,77.61423 0,50 0,22.38576 22.385762,0 50,0 c 27.614236,0 50,22.38576 50,50 0,27.61423 -22.385763,50 -50,50 z M 49.896906,55.46392 33.195875,74.63917 h 33.402061 z m 0,-10.92784 16.70103,-19.17526 H 33.195875 Z"/></svg>
