<?xml version="1.0" encoding="UTF-8"?><svg viewbox="0 0 100 100"><path id="svg-icon-menu" style="fill:#000" d="M 9.6774193,4.8387098 C 4.3548387,4.8387098 0,9.1935482 0,14.516129 0,19.83871 4.3548387,24.193548 9.6774193,24.193548 H 90.32258 C 95.645161,24.193548 100,19.83871 100,14.516129 100,9.1935481 95.645161,4.8387098 90.32258,4.8387098 Z m 0,35.4838712 C 4.3548387,40.322581 0,44.677419 0,50 c 0,5.32258 4.3548387,9.677419 9.6774193,9.677419 H 90.32258 C 95.645161,59.677419 100,55.32258 100,50 c 0,-5.322581 -4.354839,-9.677419 -9.67742,-9.677419 z m 0,35.48387 C 4.3548387,75.806451 0,80.16129 0,85.483871 0,90.806451 4.3548387,95.16129 9.6774193,95.16129 H 90.32258 c 5.322581,0 9.67742,-4.354839 9.67742,-9.677419 0,-5.322581 -4.354839,-9.67742 -9.67742,-9.67742 z"/></svg>
