<?xml version="1.0" encoding="UTF-8"?><svg viewbox="0 0 100 100"><path id="svg-icon-close" d="M 96.619836,19.697353 66.320424,49.999815 96.619836,80.300837 c 4.506884,4.508594 4.506884,11.811917 0,16.320511 -2.251865,2.251852 -5.204208,3.378648 -8.155115,3.378648 -2.955789,0 -5.908418,-1.125076 -8.158562,-3.378648 L 50,66.316876 19.696427,96.621058 c -2.251579,2.251852 -5.204208,3.378648 -8.157701,3.378648 -2.9526295,0 -5.9032502,-1.125066 -8.1568376,-3.378648 -4.506888,-4.506584 -4.506888,-11.810187 0,-16.320511 L 33.680439,49.999525 3.3801659,19.697353 c -4.5068879,-4.506874 -4.5068879,-11.811918 0,-16.3187918 4.5060266,-4.5034239 11.8067891,-4.5034239 16.3145381,0 L 49.999857,33.681023 80.302714,3.3785612 c 4.50861,-4.5034239 11.810235,-4.5034239 16.3154,0 4.508606,4.5068738 4.508606,11.8119178 0,16.3187918 z"/></svg>
