<?xml version="1.0" encoding="UTF-8" standalone="no"?>
<svg viewbox="0 0 100 100"><path id="svg-icon-globe" d="M 93.296042,24.90149 C 88.824761,17.24138 82.759753,11.17638 75.099423,6.70532 67.437724,2.2345 59.07391,0 50,0 40.930194,0 32.564784,2.2345 24.903542,6.70532 17.242755,11.17569 11.177748,17.2407 6.7064661,24.90149 2.2349566,32.56273 0,40.92905 0,49.99977 0,59.07049 2.2356407,67.4359 6.705782,75.09759 11.176835,82.7561 17.241843,88.8227 24.90263,93.29421 32.563872,97.76481 40.92951,100 50,100 59.071858,100 67.438408,97.76481 75.099195,93.29421 82.759525,88.8243 88.824305,82.7577 93.29513,75.09759 97.765271,67.4359 100,59.0698 100,49.99977 100,40.92905 97.765271,32.56159 93.296042,24.90149 Z M 56.255188,76.30708 c -0.436228,-0.51968 -0.586959,-0.95454 -0.455839,-1.30321 -0.04355,0.21755 -0.195653,0.41274 -0.455611,0.58582 -0.21686,-0.25996 -0.60885,-0.58582 -1.172321,-0.97598 -0.565067,-0.39199 -0.955004,-0.71671 -1.172092,-0.97872 -0.08756,-0.12953 -0.205914,-0.31378 -0.358241,-0.55253 -0.152098,-0.23875 -0.347067,-0.55321 -0.585818,-0.94428 -0.237383,-0.39017 -0.410688,-0.7272 -0.519688,-1.00997 -0.10786,-0.2823 -0.117894,-0.44466 -0.03284,-0.48685 -0.824113,0.34798 -2.018097,0.10923 -3.580355,-0.71648 -0.303512,-0.1733 -0.760035,-0.62914 -1.367289,-1.36729 -0.607253,-0.73814 -1.236853,-1.06286 -1.888117,-0.97689 -0.216632,0.0435 -0.509883,0.11926 -0.879069,0.2278 -0.368275,0.10923 -0.683189,0.16236 -0.943831,0.16236 -0.260643,0 -0.607938,-0.0857 -1.042113,-0.26087 C 41.455353,67.5807 40.988796,67.33009 40.40275,66.96181 39.81716,66.59354 39.415137,66.36414 39.198733,66.27908 38.634578,65.97466 38.3525,65.82324 38.3525,65.82324 l -1.041657,-0.51969 c -0.260642,-0.12929 -0.53223,-0.33566 -0.814308,-0.61797 -0.282077,-0.28253 -0.465872,-0.57578 -0.552753,-0.87952 -0.08665,-0.25973 -0.195197,-0.78102 -0.325404,-1.56294 -0.130207,-0.78216 -0.304196,-1.3454 -0.520828,-1.69201 -0.259958,-0.43372 -0.628917,-0.8679 -1.106875,-1.30162 -0.476818,-0.43372 -0.910766,-0.6524 -1.301615,-0.6524 0.347523,0 0.347523,-0.29097 0,-0.87862 -0.347524,-0.58695 -0.651264,-1.00996 -0.911906,-1.26877 -0.08688,-0.0876 -0.347524,-0.36919 -0.781471,-0.8476 -0.433948,-0.47773 -0.802906,-0.88888 -1.106647,-1.23777 -0.303513,-0.34707 -0.565067,-0.74818 -0.781471,-1.2047 -0.216632,-0.45584 -0.260642,-0.83506 -0.130207,-1.13948 0.0431,-0.0429 0,-0.10855 -0.130435,-0.19497 -0.130208,-0.0857 -0.292339,-0.17399 -0.48822,-0.26065 -0.194969,-0.086 -0.379676,-0.16236 -0.552753,-0.2278 -0.174446,-0.0641 -0.304653,-0.0969 -0.391078,-0.0969 0.08734,0.17491 0.184707,0.48868 0.293479,0.94429 0.108544,0.45652 0.227806,0.7931 0.357785,1.00996 0.08734,0.17331 0.455839,0.80359 1.106875,1.88675 1.129222,1.8229 1.649138,3.1699 1.562941,4.03756 -0.260642,0.086 -0.434632,0.0436 -0.521284,-0.12952 -0.08688,-0.17308 -0.152555,-0.41206 -0.195425,-0.71625 -0.04333,-0.30283 -0.0862,-0.51969 -0.130435,-0.65081 -0.130207,-0.26064 -0.466557,-0.54318 -1.009505,-0.8476 -0.542263,-0.3026 -0.879069,-0.60703 -1.009048,-0.91145 0.04378,0 0.09714,-0.0203 0.162816,-0.0654 0.06545,-0.0436 0.120174,-0.0639 0.163044,-0.0639 C 28.240125,55.34307 28.01232,54.8439 27.512926,54.23505 27.013533,53.62803 26.808303,53.19431 26.8945,52.93344 26.546976,52.6728 26.243236,52.16246 25.982593,51.40402 25.722179,50.64398 25.504863,50.15531 25.33133,49.93799 25.158024,49.67849 24.94162,49.45068 24.68075,49.2548 24.420108,49.06006 24.09516,48.8432 23.704082,48.60422 23.313461,48.36547 23.052819,48.20311 22.922612,48.116 22.835502,48.0734 22.662425,47.87885 22.401783,47.53133 20.969732,45.79462 20.535785,44.86128 21.100168,44.7313 20.536013,44.86128 20.069228,44.43851 19.70027,43.46115 19.331083,42.48494 19.21205,41.7354 19.342029,41.2148 L 19.21205,41.15 c 0.04378,-0.17398 0.06522,-0.68318 0.06522,-1.53033 0,-0.84669 0.05473,-1.61721 0.163043,-2.31135 0.109001,-0.69436 0.314915,-1.04211 0.618427,-1.04211 -0.303512,0.0433 -0.53109,-0.22849 -0.683188,-0.81339 -0.15187,-0.58651 -0.162588,-0.9883 -0.03284,-1.20493 0.04333,-0.13044 0.239207,-0.0426 0.586046,0.26064 0.346611,0.30283 0.542264,0.49939 0.58559,0.58559 0.564383,-0.30465 0.781699,-0.69459 0.651264,-1.17255 -0.08688,-0.17331 -0.54272,-0.62892 -1.367289,-1.36729 -1.866682,-1.21473 -2.821915,-1.80101 -2.864557,-1.75814 0.259502,-0.47682 0.194741,-0.8891 -0.195881,-1.23685 -0.43372,0.26064 -0.683188,0.3254 -0.748634,0.19588 -0.06476,-0.13044 -0.119033,-0.36827 -0.163044,-0.71603 -0.04287,-0.34684 -0.15187,-0.54203 -0.324948,-0.58559 -0.217316,-0.0433 -0.477958,-0.21663 -0.781471,-0.5206 3.86266,-6.16329 8.962402,-10.98095 15.299454,-14.4539 0.260186,-0.0429 0.73746,-0.0648 1.431823,-0.0648 0.346839,0.0433 0.672698,0.15209 0.976211,0.3254 0.303969,0.17331 0.618883,0.41251 0.943831,0.71603 0.326088,0.30282 0.575557,0.52014 0.748862,0.65058 0.08688,-0.26065 -0.02144,-0.65127 -0.325176,-1.1721 0.0862,-0.26064 0.563927,-0.52128 1.432051,-0.78147 0.997646,-0.13021 1.649366,-0.109 1.952879,0.0654 -0.259958,-0.39085 -0.693678,-0.93357 -1.301615,-1.62771 l -0.325404,0.32495 c -0.347523,-0.30351 -1.258289,-0.15187 -2.73435,0.45584 -0.0862,0.0429 -0.303513,0.16305 -0.651036,0.35779 -0.346839,0.19496 -0.629829,0.33635 -0.846233,0.423 -0.260642,0.0869 -0.520828,0.10854 -0.78147,0.0652 2.083086,-1.12809 4.12353,-2.01924 6.120419,-2.66959 0.129067,0.0862 0.346611,0.2709 0.65058,0.55275 0.303513,0.28208 0.542264,0.48868 0.716025,0.61843 -0.130207,-0.0862 -0.217316,-0.0438 -0.260642,0.1302 -0.173305,0.5206 -0.173305,0.95455 0,1.30162 0.216632,0.30465 0.509883,0.47727 0.879069,0.52128 0.369187,0.0429 0.813624,0.0214 1.334453,-0.0657 0.520828,-0.0862 0.868579,-0.13021 1.042113,-0.13021 l 0.651264,0.0657 c 1.388496,0.1302 1.931444,0 1.627703,-0.39108 0.129979,0.17445 0.281849,0.53223 0.455383,1.07495 0.173305,0.54272 0.369186,0.92262 0.58559,1.13971 0.217316,-0.17444 0.260642,-0.47796 0.130207,-0.9119 -0.130207,-0.43395 -0.130207,-0.73861 0,-0.91191 0.04287,-0.0862 0.173306,-0.17399 0.390622,-0.26064 0.217316,-0.0862 0.466556,-0.1838 0.748862,-0.29234 0.282077,-0.109 0.466556,-0.18471 0.554121,-0.22781 0.260186,-0.17399 0.0862,-0.47796 -0.521285,-0.9119 -0.08688,-0.0436 -0.270903,-0.10855 -0.552753,-0.19543 -0.282077,-0.0855 -0.53223,-0.17353 -0.748862,-0.25996 -0.216632,-0.0862 -0.444437,-0.20591 -0.683188,-0.35778 -0.238751,-0.1521 -0.347523,-0.32541 -0.326316,-0.52129 0.02189,-0.19588 0.141837,-0.44489 0.35824,-0.74886 0.260643,-0.2164 0.684101,-0.30351 1.269691,-0.26018 0.58559,0.0429 1.03094,0.15118 1.334452,0.32494 1.172549,0.65127 1.345626,1.23823 0.521285,1.75814 0.434632,0.0429 0.95546,0.21663 1.562942,0.52015 0.607025,0.30419 0.845776,0.62983 0.716025,0.97735 0.347295,-0.65104 0.694134,-0.97735 1.041885,-0.97735 0.216632,0.044 0.423687,0.33726 0.618427,0.87975 0.194969,0.54226 0.314002,0.83506 0.357101,0.87907 0.347979,0.47682 0.692994,0.58559 1.042569,0.32495 0.346611,-0.26019 0.705536,-0.63987 1.07381,-1.13926 0.368274,-0.49871 0.574416,-0.72651 0.618199,-0.68319 -0.433948,-0.17285 -0.479327,-0.34684 -0.129523,-0.5206 0.649211,-0.39062 1.236169,-0.49939 1.757454,-0.32495 0.129295,0.0862 0.304197,0.28208 0.51946,0.58491 0.389482,0.78238 0.32472,1.15066 -0.194968,1.10733 0.390165,0.34752 0.551841,0.78193 0.488676,1.30207 -0.06545,0.52083 -0.40362,0.75981 -1.010645,0.71603 -0.216176,0 -0.53223,-0.109 -0.945199,-0.32541 -0.412056,-0.21663 -0.726515,-0.33566 -0.944287,-0.35778 -0.21686,-0.0226 -0.521284,0.0971 -0.91145,0.35778 -0.173305,0.21732 -0.401111,0.58651 -0.683644,1.10688 -0.282306,0.52174 -0.532231,0.89001 -0.74909,1.10665 -0.65058,0.65103 -1.736704,0.89024 -3.255635,0.71602 0.130435,0 0.119033,0.13021 -0.03284,0.39085 -0.152554,0.26019 -0.357785,0.55367 -0.618427,0.87884 -0.260642,0.32541 -0.412513,0.50988 -0.455383,0.55321 -0.390849,0.43395 -0.651036,0.93334 -0.781471,1.4975 0,0.0869 -0.02189,0.38013 -0.06567,0.87861 -0.04401,0.49939 -0.130208,0.87975 -0.260643,1.13971 0.520829,-0.13021 0.933341,0.13112 1.236854,0.78147 0.260642,0.60794 0.260642,0.93334 0,0.97713 1.432735,-0.21618 2.69148,-0.12998 3.777376,0.26064 1.562257,0.56415 2.453412,1.12831 2.670272,1.69269 0.259274,-0.39108 0.888191,-0.41319 1.886978,-0.0657 0.390849,0.21663 0.736548,0.86858 1.042341,1.95288 0.173305,0.65058 0.466785,1.21542 0.878841,1.69246 0.412969,0.47728 0.85695,0.60726 1.335136,0.39062 l 0.194513,-0.1302 c 0.17399,-0.0862 0.314458,-0.16259 0.422774,-0.22758 0.109228,-0.0648 0.227806,-0.15187 0.357329,-0.26064 0.131119,-0.10855 0.20751,-0.20615 0.227805,-0.29234 0.0203,-0.0866 -0.01094,-0.17445 -0.09669,-0.26064 -0.304425,-0.26065 -0.53223,-0.61843 -0.683645,-1.07359 -0.150502,-0.45584 -0.117893,-0.85763 0.09851,-1.20538 0.129295,-0.17331 0.476818,-0.43395 1.040745,-0.78147 0.565067,-0.34775 0.912362,-0.69459 1.041657,-1.04189 0.175814,-0.56415 -0.04287,-1.03094 -0.650123,-1.40035 -0.60771,-0.36828 -0.912135,-0.70463 -0.912135,-1.00905 0,-0.21732 0.141153,-0.47727 0.422775,-0.78147 0.283217,-0.30351 0.402707,-0.5865 0.35824,-0.84623 0,-0.13112 -0.07662,-0.4018 -0.228033,-0.81431 -0.150502,-0.4132 -0.238751,-0.71671 -0.259958,-0.91191 -0.02189,-0.19542 0.07662,-0.42323 0.292567,-0.68319 0.302828,-0.17399 1.019309,-0.16304 2.147619,0.0319 1.128538,0.19588 1.866911,0.40202 2.21489,0.61843 0.130891,0.0862 0.412741,0.21663 0.846689,0.39085 0.433719,0.17239 0.813851,0.35687 1.140167,0.55298 0.323808,0.19497 0.508515,0.37876 0.551613,0.55275 h -0.324719 c 0.303512,0.26133 0.488675,0.56415 0.552525,0.91191 0.06567,0.34843 -0.09669,0.60816 -0.486852,0.78238 0.259046,-0.044 0.60771,0.0214 1.041657,0.19497 0.69459,0.26018 0.716482,0.49939 0.06545,0.71602 0.129523,-0.044 0.313774,-0.0867 0.551841,-0.13043 0.238751,-0.0433 0.422318,-0.10877 0.553209,-0.19497 0.08597,-0.0438 0.194969,-0.11903 0.32472,-0.22803 0.13112,-0.10855 0.227806,-0.17399 0.293479,-0.19474 0.06545,-0.0214 0.162132,-0.044 0.293251,-0.0657 0.129524,-0.0214 0.259275,0.0114 0.38857,0.0976 0.04538,0 0.142065,-0.10877 0.293479,-0.3254 0.150502,-0.21641 0.31537,-0.43372 0.487764,-0.65036 0.174217,-0.21663 0.324719,-0.32494 0.455839,-0.32494 0.12861,0 0.249012,0.0534 0.356416,0.1619 0.109912,0.109 0.194969,0.22781 0.26087,0.35824 0.06545,0.13044 0.129295,0.27159 0.194969,0.42255 0.06545,0.15187 0.118577,0.27204 0.16236,0.35824 0.08574,0.21663 0.293251,0.44535 0.617971,0.68319 0.324719,0.23806 0.530634,0.46655 0.617971,0.68318 0.04378,0.13044 0.128839,0.45607 0.259958,0.97758 0.129523,0.52083 0.304425,0.87862 0.5206,1.07359 0.21686,0.19588 0.542264,0.35824 0.975984,0.48822 0.08688,0.044 0.283446,0.0219 0.586046,-0.0643 0.302829,-0.0873 0.553437,-0.109 0.748406,-0.0657 0.196565,0.0429 0.293251,0.21617 0.293251,0.52083 0.259958,-0.26065 0.389481,-0.43464 0.389481,-0.52083 0.04447,0.56438 0.184252,1.02045 0.424599,1.36729 0.238751,0.34661 0.617971,0.49939 1.139255,0.45538 l -0.131119,1.43273 c -0.129523,0.21664 -0.454927,0.379 -0.976896,0.48731 -0.521284,0.109 -0.846004,0.20728 -0.977123,0.29348 -0.129523,0.0433 -0.444666,0.30374 -0.944287,0.7817 -0.499393,0.47796 -0.70394,0.76004 -0.617971,0.84623 -0.736548,-0.8248 -1.845019,-1.06355 -3.31994,-0.71602 -1.648682,0.26041 -2.778133,0.52083 -3.385158,0.78147 -0.693906,0.34775 -1.17232,0.6727 -1.432734,0.97621 -0.04355,0.0433 -0.117894,0.19588 -0.227122,0.45584 -0.108544,0.26018 -0.21686,0.49939 -0.32472,0.71602 -0.109912,0.21664 -0.205914,0.32518 -0.292567,0.32518 0.261327,-0.0422 0.553438,-0.24947 0.878842,-0.61774 0.326316,-0.36919 0.53223,-0.57442 0.618198,-0.61843 1.127398,-0.73746 2.060739,-0.9981 2.802989,-0.776 0.954548,0.26064 1.106646,0.60817 0.454927,1.04211 -0.08506,0.0862 -0.314459,0.11881 -0.682733,0.0976 -0.368274,-0.0214 -0.618199,-0.0114 -0.74909,0.0328 0.391762,0.0862 0.716253,0.20591 0.978492,0.35687 0.259046,0.15187 0.32472,0.35824 0.194284,0.61843 0.693906,0.39085 0.824798,0.8248 0.391078,1.30275 -0.565067,0.56507 -1.23617,0.80291 -2.018097,0.71603 0.131119,0 0.131119,0.0871 0,0.26041 l -1.108015,0.71603 c -0.08597,0.0426 -0.368274,0.15096 -0.846004,0.3254 -0.477502,0.1724 -0.80359,0.36919 -0.976896,0.58559 -0.129523,0.17377 -0.194968,0.43395 -0.194968,0.78239 0,0.34775 -0.02189,0.60839 -0.06545,0.7817 -0.04287,0.17444 -0.217088,0.2164 -0.519688,0.1302 -0.13112,0.26019 -0.532231,0.46656 -1.20493,0.61752 -0.672699,0.15187 -1.117364,0.37967 -1.334452,0.68319 0.259046,0.34775 0.238751,0.69459 -0.06567,1.04211 -0.521284,0.43463 -0.976895,0.39062 -1.367061,-0.13021 -0.216859,0.0869 -0.380131,0.30351 -0.488675,0.65127 -0.107632,0.34752 -0.27136,0.58627 -0.48708,0.71602 0.304425,0.4775 0.259274,0.82571 -0.129295,1.04166 0.04219,0 0.140469,0.044 0.291655,0.13043 0.151414,0.0867 0.313774,0.19497 0.488676,0.32541 0.173305,0.13043 0.280709,0.19588 0.324719,0.19588 -0.173305,0.38971 -0.412968,0.5849 -0.716481,0.5849 0.260642,0.69482 -0.06408,1.45486 -0.975299,2.27897 -0.17513,0.17331 -0.44649,0.34661 -0.814764,0.52083 -0.370783,0.17331 -0.70622,0.314 -1.010645,0.42277 -0.304424,0.10878 -0.476818,0.18448 -0.520372,0.22781 -0.433948,0.3913 -0.760264,0.79242 -0.976212,1.20447 -0.216176,0.41297 -0.249012,0.81385 -0.09851,1.20493 0.152326,0.39176 0.553437,0.65081 1.205613,0.78193 l 0.06316,0.52037 v 1.17141 l 0.06545,0.52128 c 0.04447,0.30352 0.0773,0.5751 0.09851,0.81454 0.02121,0.23898 0.02121,0.54158 0,0.91145 -0.02121,0.36827 -0.119261,0.5751 -0.292567,0.61729 -0.172393,0.0445 -0.411372,0 -0.715797,-0.13021 -0.348663,-0.17331 -0.760036,-1.12831 -1.23845,-2.8641 -0.08665,-0.43372 -0.347979,-0.95364 -0.781927,-1.56226 -0.21686,0.21686 -0.401111,0.35733 -0.552525,0.42232 -0.15073,0.0654 -0.260871,0.0773 -0.324036,0.0328 -0.06544,-0.0429 -0.184935,-0.14116 -0.358697,-0.29257 -0.173305,-0.15142 -0.324035,-0.27159 -0.454926,-0.35733 -0.217088,-0.12952 -0.596308,-0.23898 -1.140168,-0.32472 -0.54158,-0.0867 -0.879753,-0.19588 -1.008364,-0.3254 -1.042798,0.78261 -1.672626,0.58581 -1.889258,-0.58445 -0.0862,0.21617 -0.07571,0.50874 0.03284,0.87884 0.109,0.36896 0.163044,0.57441 0.163044,0.61797 -0.303513,0.56507 -0.780787,0.60702 -1.432051,0.12952 -0.260642,-0.25927 -0.857634,-0.29188 -1.790975,-0.0969 -0.933342,0.19451 -1.551768,0.22712 -1.855281,0.0969 0.04401,0 0.130207,0.0648 0.260642,0.19565 0.129979,0.0851 0.217316,0.15073 0.260415,0.19452 -0.04378,0.17421 -0.108544,0.30351 -0.195881,0.39016 -0.08711,0.086 -0.17399,0.11881 -0.260415,0.0985 -0.08688,-0.0219 -0.184479,-0.0219 -0.293479,0 -0.108544,0.0203 -0.205914,0.0529 -0.293023,0.0967 -0.173533,0.12952 -0.390165,0.35733 -0.650807,0.68273 -0.260187,0.32563 -0.455383,0.53155 -0.585591,0.61729 0.259959,0.69459 0.379676,1.22682 0.358241,1.59509 -0.02258,0.36987 -0.08688,0.91236 -0.195881,1.62793 -0.109,0.71557 -0.163044,1.29159 -0.163044,1.72622 0,0.69276 0.206371,1.49818 0.618427,2.40826 0.412513,0.91145 0.900505,1.54037 1.464888,1.88835 0.304652,0.1733 0.825709,0.28093 1.562941,0.32403 0.737689,0.0442 1.258746,0 1.562258,-0.12952 0.260642,-0.12861 0.455383,-0.28162 0.58559,-0.45493 0.130207,-0.1733 0.239207,-0.4246 0.325404,-0.74909 0.08688,-0.32472 0.152555,-0.55252 0.195881,-0.68205 0.303513,-0.82571 0.867668,-1.25943 1.691325,-1.30321 0.52288,-0.0436 0.900504,0.0125 1.140851,0.16236 0.238751,0.1521 0.335666,0.35801 0.291883,0.61888 -0.04378,0.25973 -0.130207,0.53132 -0.259274,0.81363 -0.130891,0.28253 -0.293251,0.59631 -0.488904,0.94451 -0.194056,0.34867 -0.31423,0.60862 -0.356188,0.78284 -0.08688,0.34707 -0.163956,0.83483 -0.227806,1.46557 -0.06545,0.62892 -0.120401,1.00905 -0.163956,1.13994 0.08756,0.0424 0.412513,0.0641 0.976212,0.0641 0,-0.086 0.03284,-0.22803 0.09828,-0.423 0.06408,-0.19497 0.09692,-0.31446 0.09692,-0.35733 0.217772,0.34798 0.565067,0.54158 1.042569,0.58536 0.477502,0.0436 0.825481,-0.12952 1.042341,-0.5206 0.08756,0.13044 0.347979,0.45652 0.782155,0.97781 0.43372,0.51969 0.672471,0.95364 0.716481,1.30161 0.04355,0.17491 0.129295,0.45584 0.259047,0.8476 0.131119,0.39017 0.174901,0.66176 0.131119,0.81454 -0.04355,0.14982 -0.260871,0.22712 -0.650808,0.22712 -0.173305,0 -0.282305,0.0654 -0.32472,0.19497 -0.04515,0.13112 -0.04515,0.29257 0,0.48776 0.04378,0.19497 0.09851,0.38014 0.16236,0.55344 0.06476,0.1724 0.151415,0.35824 0.259274,0.55344 0.110597,0.1936 0.163956,0.31355 0.163956,0.3571 0.780331,1.43114 1.844792,1.82222 3.189962,1.17232 0,1.25806 -0.304197,1.95242 -0.913047,2.08195 -0.34319,0.0862 -0.732671,-0.13295 -1.166619,-0.65264 z m 0.972335,14.70839 c -0.08574,-0.43394 -0.129523,-0.78055 -0.124735,-1.0396 -0.04538,-0.34798 0.107632,-0.81476 0.454015,-1.40013 0.347067,-0.58513 0.520373,-1.03094 0.520373,-1.33445 -0.694362,-0.1733 -0.954549,-0.73814 -0.782611,-1.69269 0.08734,-0.65149 0.716253,-1.51939 1.888345,-2.60414 0.825482,-0.73815 1.084756,-1.78095 0.781927,-3.1252 -0.131119,-0.56439 -0.240347,-1.38987 -0.326316,-2.47485 -0.08574,-1.08544 -0.173305,-1.84479 -0.260642,-2.27851 0,0.12952 0.205914,0.24901 0.619567,0.35733 0.412285,0.10763 0.661753,0.24969 0.748406,0.4214 0.08665,-0.12861 0.194513,-0.36827 0.325404,-0.71488 0.129523,-0.34798 0.26087,-0.60771 0.388569,-0.78193 0.08756,-0.13021 0.271588,-0.29257 0.55435,-0.48868 0.282305,-0.19496 0.466556,-0.31354 0.553209,-0.35732 0.08506,-0.0429 0.281621,-0.18334 0.58445,-0.42278 0.304197,-0.23875 0.554121,-0.42232 0.749774,-0.55252 0.196565,-0.13021 0.454927,-0.22781 0.781243,-0.29189 0.326316,-0.0654 0.553437,0.0315 0.682732,0.29189 0.217772,0.26087 0.174902,0.66175 -0.129295,1.20493 -0.304424,0.54317 -0.304424,0.92308 0,1.14085 0.04424,-0.13112 0.08665,-0.41434 0.129295,-0.84829 0.04447,-0.43395 0.174902,-0.75935 0.391078,-0.97781 0.260642,-0.25904 0.509427,-0.41205 0.74909,-0.45424 0.238751,-0.0452 0.454927,-0.0125 0.649439,0.0976 0.196565,0.10854 0.424371,0.25836 0.683645,0.45493 0.260642,0.19497 0.499165,0.31468 0.716253,0.35733 0.650808,0.21708 1.432735,0.69459 2.344185,1.43273 -0.04355,-0.0442 -0.04355,-0.0983 0,-0.16396 0.04378,-0.0639 0.129523,-0.12929 0.26087,-0.19496 0.129523,-0.0639 0.248101,-0.1293 0.357329,-0.19497 0.107632,-0.0648 0.226209,-0.11698 0.357328,-0.16145 l 0.194969,-0.0654 c 0.302829,0 0.520373,-0.0212 0.650124,-0.0657 0.129295,-0.0429 0.316054,0 0.553209,0.13112 0.237383,0.12952 0.401339,0.22712 0.48708,0.29257 0.08734,0.0639 0.238751,0.18334 0.455839,0.35732 0.21686,0.17331 0.36987,0.30443 0.454014,0.39017 0.13112,0.0857 0.369871,0.23875 0.716482,0.45584 0.347979,0.21686 0.619567,0.39016 0.814764,0.51946 0.196565,0.12952 0.369642,0.32632 0.51946,0.58445 0.151414,0.26224 0.207739,0.54409 0.163956,0.84828 0.26087,0.0438 0.780559,0.21618 1.562486,0.51969 0.131119,0.086 0.401111,0.16327 0.814536,0.22712 0.412284,0.0654 0.683644,0.16396 0.813851,0.29257 -6.288708,6.64467 -13.907309,10.74631 -22.848047,12.30879 z"/></svg>
