<?xml version="1.0" encoding="UTF-8"?><svg viewbox="0 0 100 100"><path style="fill:#000" id="svg-icon-lock" d="M 50,0 C 22.385484,0 0,22.38679 0,50 0,77.6132 22.385484,100 50,100 77.612562,100 100,77.61286 100,50 100,22.38679 77.612562,0 50,0 Z m 0,19.97044 c 9.136512,0 16.569983,7.43346 16.569983,16.57064 v 8.56592 c 2.664386,0.55768 4.666758,2.91972 4.666758,5.75011 v 18.97303 h 0 c 0,3.2454 -2.630385,5.87642 -5.875115,5.87642 h -30.72521 c -3.24473,0 -5.875766,-2.63069 -5.875766,-5.87642 V 50.85776 c 0,-2.83039 2.002675,-5.1941 4.66806,-5.75011 v -8.56592 c 0,-9.13651 7.433445,-16.57064 16.570623,-16.57064 z m 0,8.646 c -4.370418,0 -7.925284,3.55455 -7.925284,7.92464 V 44.982 h 15.849266 v -8.44027 c 0,-4.36942 -3.554563,-7.92464 -7.923982,-7.92464 z m 0,25.21209 c -2.871056,0 -5.199319,2.32726 -5.199319,5.19932 0,1.92537 1.050141,3.60269 2.606171,4.50204 v 5.78071 h 5.186948 v -5.78071 c 1.556031,-0.89902 2.606171,-2.57667 2.606171,-4.50204 0,-2.87206 -2.328582,-5.19932 -5.2,-5.19932 z"/></svg>
