<?xml version="1.0" encoding="UTF-8"?><svg viewbox="0 0 100 100"><path style="fill:#000" id="svg-icon-group" d="m 20,3.33318 c -3.680794,0 -6.823202,1.30234 -9.427322,3.90646 -2.6039369,2.60449 -3.9061078,5.74653 -3.9061078,9.42732 0,3.68116 1.3021709,6.82321 3.9061078,9.42733 2.60412,2.60357 5.746528,3.90575 9.427322,3.90575 3.681158,0 6.823034,-1.30145 9.426606,-3.90575 2.604485,-2.60412 3.906822,-5.7469 3.906822,-9.42733 0,-3.68006 -1.302337,-6.82283 -3.906822,-9.42732 C 26.823178,4.63552 23.681119,3.33318 20,3.33318 Z m 60,0 c -3.68207,0 -6.823914,1.30234 -9.428033,3.90646 -2.60339,2.60449 -3.905753,5.74653 -3.905753,9.42732 0,3.68116 1.302545,6.82321 3.905753,9.42733 2.604119,2.60357 5.745963,3.90575 9.428033,3.90575 3.679516,0 6.822313,-1.30145 9.42625,-3.90575 2.603937,-2.60412 3.905397,-5.7469 3.905397,-9.42733 0,-3.68006 -1.30146,-6.82283 -3.905397,-9.42732 C 86.823781,4.63552 83.680801,3.33318 80,3.33318 Z M 50,16.66696 c -5.521646,0 -10.235254,1.95361 -14.14116,5.8597 -3.905905,3.90591 -5.85934,8.61898 -5.85934,14.14045 0,5.52146 1.953435,10.23487 5.85934,14.14187 3.906271,3.90499 8.619514,5.85827 14.14116,5.85827 5.521828,0 10.234357,-1.95328 14.140446,-5.85827 3.905541,-3.90755 5.858984,-8.62132 5.858984,-14.14187 0,-5.52092 -1.953443,-10.234 -5.858984,-14.14045 -3.906089,-3.90645 -8.618618,-5.8597 -14.140446,-5.8597 z M 6.4586355,30 C 2.1528537,30 0,36.12953 0,48.3865 c 0,2.70792 0.972203692700742,4.76624 2.916308852700742,6.17146 1.9446525,1.40595 4.3408873,2.10929 7.1872672,2.10929 h 6.979545 c 3.576811,-4.27076 8.176699,-6.49268 13.801962,-6.66671 -2.812632,-4.06261 -4.218417,-8.50701 -4.21787,-13.33343 0,-1.00699 0.08679,-2.1524 0.260099,-3.43722 -2.29199,0.79847 -4.6007,1.19823 -6.927168,1.19823 -2.048636,0 -4.114165,-0.37337 -6.197826,-1.11949 C 11.71957,32.56196 10.026302,31.82411 8.7246984,31.09459 7.4225474,30.36543 6.6667826,30 6.4586355,30 Z m 87.0823745,0 c -0.207235,0 -0.96266,0.36468 -2.264993,1.09384 -1.301057,0.72952 -2.994517,1.46773 -5.077265,2.2144 -2.082564,0.74593 -4.149745,1.11913 -6.197467,1.11913 -2.327381,0 -4.634633,-0.39885 -6.92717,-1.19788 0.172392,1.2841 0.259742,2.43024 0.259742,3.43722 0,4.82643 -1.406638,9.27082 -4.220363,13.33343 5.626176,0.17422 10.22602,2.39575 13.803742,6.66778 h 6.978833 c 2.846745,0 5.242807,-0.70476 7.186912,-2.11071 C 99.027086,53.15274 100,51.09442 100,48.3865 100,36.12862 97.848616,30 93.54101,30 Z M 31.35433,53.33372 c -2.117774,0 -4.053311,0.34679 -5.806965,1.0411 -1.753653,0.69541 -3.237893,1.62328 -4.453028,2.78697 -1.216228,1.16242 -2.291639,2.57091 -3.229852,4.21894 -0.937118,1.64949 -1.683673,3.34111 -2.23934,5.07798 -0.555485,1.73559 -1.015088,3.61942 -1.380303,5.6509 -0.36485,2.03149 -0.607493,3.92307 -0.728988,5.67728 -0.121678,1.75365 -0.182425,3.55121 -0.182425,5.39151 0,4.16587 1.267096,7.45639 3.801712,9.86878 2.535528,2.41221 5.903767,3.61964 10.104289,3.61964 h 45.521499 c 4.200887,0 7.56857,-1.20743 10.104645,-3.61964 2.534615,-2.41239 3.802069,-5.70291 3.802069,-9.86878 0,-1.8403 -0.06115,-3.63731 -0.181001,-5.39151 -0.123319,-1.75421 -0.366136,-3.64597 -0.729345,-5.67728 -0.364668,-2.03148 -0.825348,-3.91531 -1.381015,-5.6509 -0.555667,-1.73687 -1.302065,-3.42849 -2.238271,-5.07798 -0.937848,-1.64803 -2.014892,-3.05525 -3.230209,-4.21894 -1.216228,-1.16369 -2.700815,-2.09156 -4.453739,-2.78697 -1.752924,-0.69431 -3.689374,-1.04111 -5.806966,-1.0411 -0.347702,0 -1.094057,0.37318 -2.240052,1.11984 -1.146177,0.74594 -2.412181,1.58092 -3.801713,2.4998 -1.389168,0.91887 -3.245304,1.75277 -5.573232,2.49944 -2.328111,0.74666 -4.671357,1.1202 -7.031209,1.1202 -2.360764,0 -4.705096,-0.37354 -7.031564,-1.1202 -2.327016,-0.74667 -4.184247,-1.58057 -5.573232,-2.49944 -1.38935,-0.91888 -2.656082,-1.75386 -3.801712,-2.4998 -1.146177,-0.74666 -1.892351,-1.11984 -2.240053,-1.11984 z"/></svg>
