<?xml version="1.0" encoding="UTF-8" standalone="no"?>
<svg
   xmlns:dc="http://purl.org/dc/elements/1.1/"
   xmlns:cc="http://creativecommons.org/ns#"
   xmlns:rdf="http://www.w3.org/1999/02/22-rdf-syntax-ns#"
   xmlns:svg="http://www.w3.org/2000/svg"
   xmlns="http://www.w3.org/2000/svg"
   viewBox="0 0 50 50"
   version="1.1"
   width="50"
   height="50">
  <path d="m 20.382814,16.291016 c -1.399321,0 -2.525969,0.49165 -3.386718,1.451172 -0.834713,0.959523 -1.25,2.256599 -1.25,3.888672 v 7.986328 h 3.162109 v -7.751953 c 0,-1.633876 0.687413,-2.462891 2.0625,-2.462891 1.520371,0 2.283203,0.984428 2.283203,2.929688 v 4.242187 h 3.144531 v -4.242187 c 0,-1.94526 0.762833,-2.929688 2.283203,-2.929688 1.375076,0 2.0625,0.829015 2.0625,2.462891 v 7.751953 h 3.164063 V 21.63086 c 0,-1.632073 -0.415454,-2.929149 -1.25,-3.888672 -0.860916,-0.959522 -1.989516,-1.451172 -3.388672,-1.451172 -1.619143,0 -2.84383,0.622484 -3.654297,1.867187 l -0.789062,1.320313 -0.78711,-1.320313 C 23.22843,16.9135 22.001792,16.291016 20.382814,16.291016 Z m 4.398438,-5.152344 h 0.0957 c 3.886747,0.03178 7.627977,0.45249 9.806641,1.453125 0,0 4.320312,1.932199 4.320312,8.527344 0,0 0.05527,4.865809 -0.601562,8.244141 -0.416859,2.1446 -3.733691,4.492385 -7.542969,4.947265 -1.986372,0.23701 -3.941878,0.454975 -6.027344,0.359375 -3.41058,-0.15627 -6.101562,-0.814453 -6.101562,-0.814453 0,0.33202 0.01963,0.647709 0.06055,0.943359 0.443404,3.36588 3.338597,3.56801 6.080078,3.66211 2.767031,0.09468 5.230468,-0.681641 5.230468,-0.681641 l 0.113282,2.5 c 0,0 -1.935035,1.039319 -5.382813,1.230469 -1.901193,0.1045 -4.262208,-0.04763 -7.011719,-0.775391 -5.963203,-1.57835 -6.989566,-7.935067 -7.146484,-14.384765 -0.04783,-1.914956 -0.01758,-3.720252 -0.01758,-5.230469 0,-6.595145 4.320312,-8.527344 4.320312,-8.527344 2.178837,-1.000635 5.917929,-1.421335 9.804688,-1.453125 z M 24.826172,0 C 11.137172,0 0,11.137172 0,24.826172 c 0,13.688 11.137172,24.826172 24.826172,24.826172 13.688,0 24.826172,-11.138172 24.826172,-24.826172 C 50,11.137172 38.516172,0 24.826172,0 Z" />
</svg>
