<?xml version="1.0" encoding="UTF-8"?><svg viewbox="0 0 100 100"><path id="svg-icon-mastodon" d="m 41.044701,32.820574 c -2.817801,0 -5.086522,0.990032 -6.819805,2.922213 -1.680855,1.932183 -2.517115,4.544094 -2.517115,7.830586 v 16.082002 h 6.367513 V 44.045332 c 0,-3.290122 1.384237,-4.959503 4.153239,-4.959503 3.061558,0 4.597666,1.982335 4.597666,5.899488 v 8.542457 h 6.332116 v -8.542457 c 0,-3.917153 1.53611,-5.899488 4.597667,-5.899488 2.768979,0 4.153238,1.669381 4.153238,4.959503 v 15.610043 h 6.371448 V 43.573373 c 0,-3.286492 -0.836597,-5.898403 -2.517115,-7.830586 -1.733619,-1.932181 -4.006272,-2.922213 -6.82374,-2.922213 -3.260455,0 -5.726597,1.253491 -7.358627,3.759939 l -1.588928,2.658703 -1.584997,-2.658703 c -1.632367,-2.506448 -4.102437,-3.759939 -7.36256,-3.759939 z m 8.857098,-10.375232 h 0.19271 c 7.82671,0.06399 15.360393,0.911176 19.747551,2.926146 0,0 8.699776,3.890853 8.699776,17.171441 0,0 0.111297,9.798239 -1.21136,16.601157 -0.839426,4.318563 -7.518503,9.046278 -15.189214,9.962266 -4,0.477265 -7.937726,0.91618 -12.137212,0.723671 -6.867856,-0.31468 -12.286664,-1.640057 -12.286664,-1.640057 0,0.668585 0.03953,1.304286 0.121929,1.899634 0.892879,6.777844 6.722905,7.184871 12.243402,7.37436 5.571947,0.190656 10.53255,-1.372615 10.53255,-1.372615 l 0.228115,5.034229 c 0,0 -3.896564,2.092868 -10.839326,2.477785 C 46.17564,83.81379 41.421284,83.507447 35.884617,82.041961 23.876565,78.863651 21.809786,66.063183 21.493802,53.07548 c -0.09631,-3.856131 -0.0354,-7.49144 -0.0354,-10.532551 0,-13.280588 8.699776,-17.171441 8.699776,-17.171441 4.387506,-2.01497 11.916884,-2.862131 19.743618,-2.926146 z m 0.09046,-22.42985 C 22.42683,0.015492 0,22.442322 0,50 0,77.571157 22.42683,100 50,100 77.555665,100 99.984508,77.571157 99.984508,50 100,22.442322 77.559692,0.015492 50,0.015492 Z"/></svg>
