<?xml version="1.0" encoding="UTF-8" standalone="no"?><svg xmlns:dc="http://purl.org/dc/elements/1.1/" xmlns:cc="http://creativecommons.org/ns#" xmlns:rdf="http://www.w3.org/1999/02/22-rdf-syntax-ns#" xmlns:svg="http://www.w3.org/2000/svg" xmlns="http://www.w3.org/2000/svg" viewBox="0 0 100 100" height="50" width="50" version="1.1"><path id="svg-icon-feed" style="fill:#000;stroke:none" d="M 50,0 A 50,50 0 0 0 0,50 50,50 0 0 0 50,100 50,50 0 0 0 100,50 50,50 0 0 0 50,0 Z M 25,25 A 50,50 0 0 1 75,75 H 65 A 40,40 0 0 0 25,35 Z m 0,16.859376 A 33.142856,33.142856 0 0 1 58.140624,75 H 48.429688 A 23.428572,23.428572 0 0 0 25,51.570312 Z m 6.859376,19.42578 A 6.8571428,6.8571426 0 0 1 38.714844,68.140624 6.8571428,6.8571426 0 0 1 31.859376,75 6.8571428,6.8571426 0 0 1 25,68.140624 6.8571428,6.8571426 0 0 1 31.859376,61.285156 Z" /></svg>
