<?xml version="1.0" standalone="no"?>
<!DOCTYPE svg PUBLIC "-//W3C//DTD SVG 20010904//EN"
 "http://www.w3.org/TR/2001/REC-SVG-20010904/DTD/svg10.dtd">
<svg version="1.0" xmlns="http://www.w3.org/2000/svg"
 width="700.000000pt" height="700.000000pt" viewBox="0 0 700.000000 700.000000"
 preserveAspectRatio="xMidYMid meet">
<metadata>
Created by potrace 1.11, written by Peter Selinger 2001-2013
</metadata>
<g transform="translate(0.000000,700.000000) scale(0.100000,-0.100000)"
fill="#000000" stroke="none">
<path d="M3250 6444 c-457 -41 -941 -203 -1315 -440 -741 -470 -1216 -1197
-1357 -2074 -20 -127 -23 -180 -23 -430 0 -250 3 -303 23 -430 55 -341 144
-617 292 -910 392 -771 1110 -1335 1952 -1534 242 -57 371 -71 678 -71 307 0
436 14 678 71 842 199 1560 763 1952 1534 148 293 237 569 292 910 20 127 23
180 23 430 0 250 -3 303 -23 430 -55 341 -144 617 -292 910 -392 771 -1110
1335 -1952 1534 -219 52 -366 68 -633 71 -137 2 -270 1 -295 -1z m610 -469
c431 -65 836 -237 1177 -502 46 -36 85 -69 88 -74 4 -5 -622 -9 -1619 -9 -894
0 -1626 3 -1625 8 0 12 149 125 254 193 328 212 687 345 1055 389 47 5 101 12
120 14 75 9 450 -4 550 -19z m-1399 -1590 c404 -476 734 -871 734 -879 0 -7
-333 -406 -739 -885 l-740 -872 -44 43 c-107 105 -263 320 -365 506 -360 651
-405 1450 -121 2147 83 202 215 430 342 590 76 96 182 215 191 215 5 0 338
-389 742 -865z m2912 775 c327 -367 533 -813 608 -1311 27 -186 30 -485 5
-669 -51 -383 -188 -751 -396 -1063 -81 -122 -218 -296 -269 -341 -22 -20 -22
-20 -50 10 -65 67 -1481 1718 -1479 1724 6 12 1493 1739 1498 1739 3 0 40 -40
83 -89z m-915 -227 c-328 -381 -961 -1103 -966 -1102 -7 0 -933 1061 -961
1100 -13 19 1 19 964 19 931 0 977 -1 963 -17z m-473 -2320 l485 -558 -484 -3
c-267 -1 -706 -1 -977 0 l-492 3 484 557 c266 306 487 557 491 557 4 1 226
-250 493 -556z m1165 -997 c0 -8 -152 -127 -240 -187 -322 -221 -691 -362
-1090 -415 -185 -25 -484 -22 -669 5 -168 25 -368 75 -507 126 -255 93 -584
288 -788 467 -6 4 733 8 1642 8 909 0 1652 -2 1652 -4z"/>
</g>
</svg>
