<?xml version="1.0" standalone="no"?>
<!DOCTYPE svg PUBLIC "-//W3C//DTD SVG 1.1//EN" "http://www.w3.org/Graphics/SVG/1.1/DTD/svg11.dtd" >
<svg>
<metadata>
Created by FontForge 20120731 at Mon Jan 28 18:32:16 2019
 By www-data
</metadata>
<defs>
<font id="FUCXEDCAPSRegular" horiz-adv-x="770" >
  <font-face 
    font-family="FUCXED CAPS"
    font-weight="400"
    font-variant="small-caps"
    font-stretch="normal"
    units-per-em="2048"
    panose-1="0 0 0 0 0 0 0 0 0 0"
    ascent="1638"
    descent="-410"
    cap-height="1549.5"
    bbox="101.308 -501.118 2150 1833"
    underline-thickness="102"
    underline-position="-612"
    unicode-range="U+000A-25FC"
  />
<missing-glyph horiz-adv-x="2084" 
 />
    <glyph glyph-name=".notdef" horiz-adv-x="2084" 
 />
    <glyph glyph-name=".notdef" horiz-adv-x="2084" 
 />
    <glyph glyph-name="glyph1" horiz-adv-x="0" 
 />
    <glyph glyph-name="glyph2" horiz-adv-x="682" 
 />
    <glyph glyph-name="uni000A" unicode="&#xa;" horiz-adv-x="2084" 
 />
    <glyph glyph-name="uni000D" unicode="&#xd;" horiz-adv-x="2084" 
 />
    <glyph glyph-name="space" unicode=" " horiz-adv-x="942" 
 />
    <glyph glyph-name="exclam" unicode="!" horiz-adv-x="585" 
d="M102 219q0 106 60 178.5t131 72.5t130 -72.5t59 -178.5t-59 -178t-130 -72t-131 72.5t-60 177.5zM124 605q0 2 0.5 59t1 155t0.5 199t-0.5 218t-1 193.5t-0.5 79.5q0 18 9 28t18 11l9 1h266h4t8.5 -2t11.5 -6t9 -12.5t4 -19.5q0 -2 -0.5 -68t-1 -182.5t-0.5 -240.5
v-148.5t0.5 -114t1 -77.5t0.5 -51.5v-21.5q0 -16 -9.5 -24.5t-19.5 -9.5l-9 -1h-264q-4 0 -10 0.5t-16.5 9t-10.5 25.5z" />
    <glyph glyph-name="numbersign" unicode="#" horiz-adv-x="1181" 
d="M102 408l1 11l14 128q1 5 3 12.5t12 20t26 12.5h111q33 0 38 35v1l36 311v7.5t-6.5 12t-18.5 7.5h-107q-20 0 -30 12t-10 24v12l15 132q1 4 2.5 11t11 18t24.5 11h130q15 0 19 20l26 217q1 4 2.5 10.5t10 17t21.5 10.5h112q20 0 28.5 -9.5t6.5 -19.5l-1 -10l-26 -216
q0 -9 5 -14t10 -6h5h127q21 1 23 20l26 217q0 4 1.5 10.5t10.5 17t24 10.5h108q20 0 29 -10t8 -20l-1 -10l-26 -215q-1 -9 5.5 -14.5t17.5 -5.5h116q19 0 28 -10t8 -20l-1 -10l-15 -132q-1 -5 -3 -13t-13 -21.5t-27 -13.5h-113q-29 0 -33 -28l-36 -311q1 -1 -0.5 -9t6.5 -17
t24 -9h103q21 0 30.5 -11.5t8.5 -22.5l-1 -12l-14 -127q-1 -5 -4 -13t-15.5 -21t-28.5 -13h-108q-13 0 -21.5 -8.5t-10.5 -17.5l-2 -8l-23 -197q-1 -5 -3 -12.5t-14.5 -19.5t-30.5 -12h-93q-21 0 -31 11t-9 22v11l24 197v9.5t-7.5 15t-22.5 9.5h-107q-13 0 -21.5 -8.5
t-9.5 -17.5l-2 -8l-23 -197q-1 -5 -3 -12.5t-14 -19.5t-30 -12h-97q-19 0 -28.5 11t-8.5 22v11l24 197q-1 1 0.5 8.5t-5.5 16.5t-22 9h-104q-21 0 -31 12t-10 24zM479 628q-1 -16 6.5 -25t15.5 -10l8 -1h116q4 1 9.5 2.5t15.5 10.5t12 23l36 310q2 11 -3.5 18t-12.5 8l-6 2
h-133q-3 0 -7 -0.5t-11.5 -7.5t-8.5 -19z" />
    <glyph glyph-name="dollar" unicode="$" horiz-adv-x="989" 
d="M102 1136q0 174 71.5 293.5t198.5 153.5q25 6 25 21v188q0 5 1.5 11.5t12.5 18t31 11.5h101q24 0 36.5 -9t12.5 -18l1 -9v-183q0 -19 50 -31q56 -14 109 -36q33 -13 33 -43v-252q0 -30 -16 -32t-26 7q-113 56 -181 56q-53 0 -94 -44t-41 -101q0 -36 13.5 -64t40.5 -46.5
t50 -29.5t60.5 -24.5t52.5 -20.5q64 -30 111 -77t71.5 -93.5t38.5 -106t17.5 -102.5t3.5 -96q0 -52 -5.5 -101t-23.5 -108.5t-46 -108t-78 -93.5t-115 -71q-25 -9 -25 -28v-155q0 -6 -0.5 -15t-12.5 -23.5t-34 -14.5h-102q-23 0 -35 13.5t-12 26.5v14v144q0 17 -19 20
q-101 16 -198 74q-20 12 -40 34.5t-20 46.5v296q0 16 6 23t18 3.5t20.5 -8t23.5 -13.5q7 -4 10 -6q143 -87 230 -87q76 0 117 37t41 79q0 22 -1.5 37t-6 38.5t-16.5 42.5t-30.5 40.5t-50 42t-72.5 38.5q-31 14 -44 19.5t-44.5 22t-47 28t-43 34t-42 43.5t-34 53t-29 66
t-16.5 79t-7 95z" />
    <glyph glyph-name="percent" unicode="%" horiz-adv-x="1564" 
d="M102 1171q0 200 90 311t225 111t225 -111t90 -311t-90 -311.5t-225 -111.5t-225 111.5t-90 311.5zM304 1171q0 -105 30 -160t83 -55q50 0 83 56t33 159q0 106 -35.5 156t-80.5 50q-44 0 -78.5 -50t-34.5 -156zM372 -2l4 11q339 783 369 858l265 683q2 5 5.5 12t17.5 19
t33 12h79q23 0 31.5 -11.5t5.5 -22.5l-4 -11q-284 -676 -321 -769l-314 -771q-2 -5 -6.5 -12t-17.5 -19t-27 -12h-91q-21 0 -27.5 11t-1.5 22zM833 387q0 200 90 311.5t225 111.5t224.5 -111.5t89.5 -311.5t-89.5 -311t-224.5 -111t-225 111t-90 311zM1035 387
q0 -105 30 -160t83 -55q50 0 83 56t33 159q0 106 -35.5 156t-80.5 50q-44 0 -78.5 -50t-34.5 -156z" />
    <glyph glyph-name="ampersand" unicode="&#x26;" horiz-adv-x="1284" 
d="M102 400q0 288 237 428q6 4 6.5 11t-1.5 11l-2 5q-47 80 -67.5 142t-20.5 147q0 88 18.5 165.5t56.5 141.5t102.5 101t148.5 37q105 0 180 -57t110.5 -152t35.5 -218q0 -116 -43.5 -203.5t-127.5 -165.5q-2 -2 -5 -5.5t-7.5 -13.5t2.5 -17l74 -120q4 -6 8 -8.5t7 -2.5
t6 2t4.5 3.5t3.5 4.5l3 4l8 13q16 25 48 25h247q32 0 41 -13.5t1 -26.5l-7 -14l-158 -226q-13 -18 -13 -38t6 -31l7 -11l152 -245q2 -3 4.5 -7t7.5 -15t5.5 -19.5t-6 -15.5t-22.5 -7h-265q-18 0 -33.5 9.5t-21.5 19.5l-7 10l-30 48q-13 22 -31 4q-121 -131 -285 -131
q-171 0 -274 112t-103 319zM375 394q0 -64 32 -108.5t80 -44.5q55 0 129 91q6 12 7.5 17.5t-1 19.5t-13.5 31q-81 132 -104 169q-10 16 -21 19.5t-17 -1.5l-6 -5q-86 -93 -86 -188zM503 1179q0 -37 12.5 -75.5t22.5 -57.5t31 -52q4 -5 11 -5.5t14 7.5q4 6 19 25.5t21 28
t17 26.5t16 31.5t9 32t4 37.5q0 81 -26 138t-65 57q-41 0 -63.5 -65.5t-22.5 -127.5z" />
    <glyph glyph-name="parenleft" unicode="(" horiz-adv-x="604" 
d="M102 597q0 245 39.5 495t154.5 540q1 3 4.5 12t5.5 14t6.5 13t8.5 11.5t9.5 5.5t12.5 -1t15 -11l111 -102q15 -14 21.5 -30t5 -33.5t-3.5 -24.5t-7 -23q-155 -450 -155 -869q0 -429 161 -887q5 -16 7 -24t-1 -26.5t-18 -33.5l-124 -114q-28 -25 -49 23
q-121 297 -162.5 555.5t-41.5 509.5z" />
    <glyph glyph-name="parenright" unicode=")" horiz-adv-x="604" 
d="M104 -317q2 8 7 24q162 460 162 887q0 416 -156 869q-4 13 -5.5 17.5t-4 19.5t-1 24.5t8 23.5t18.5 26l112 102q8 8 15 11t12 1t9.5 -5.5t8.5 -11t6 -13.5t5.5 -14.5t4.5 -11.5q115 -290 154.5 -540t39.5 -495q0 -251 -41.5 -509.5t-162.5 -555.5q-4 -10 -7 -14.5t-9 -12
t-14 -6.5t-18 10l-125 114q-15 15 -18 33.5t-1 26.5z" />
    <glyph glyph-name="plus" unicode="+" horiz-adv-x="1394" 
d="M102 712l1 14v110q1 0 0 5.5t1.5 13.5t6.5 15.5t14 13t24 5.5q2 0 47 -0.5t97 -0.5h125.5t132.5 1q16 1 24 10.5t7 18.5v10v390q0 27 14 41t28 15h13h107q0 -1 6 0t14.5 -2t17 -8t14.5 -17t6 -29v-70t-0.5 -156t-0.5 -165q0 -19 8 -28t13 -9.5t16 -0.5h398q27 0 41 -13.5
t15 -27.5v-14v-107q-1 0 0 -6t-2 -14.5t-8 -17t-17 -14.5t-29 -6q-6 0 -71.5 0.5t-159 0.5h-167.5q-4 0 -10 -1.5t-16.5 -10t-10.5 -23.5q0 -75 0.5 -170t0.5 -161v-71q0 -25 -14 -37t-28 -12l-15 1h-110q-6 0 -15 0.5t-23.5 12t-14.5 34.5v401q0 37 -32 37h-169.5
t-160 -0.5t-70.5 -0.5q-25 0 -36.5 14.5t-11.5 28.5z" />
    <glyph glyph-name="comma" unicode="," horiz-adv-x="638" 
d="M102.5 -221.5q-0.5 17.5 1.5 29.5l3 13l111 487q1 3 2 7.5t7 16.5t14 21.5t23.5 17t34.5 7.5h184h7.5t16.5 -2t17 -9.5t10 -22t-5 -39.5q-79 -250 -155 -484q-11 -34 -28.5 -59t-34 -36.5t-31.5 -17.5t-24 -6l-9 -1h1h1h1h1h-1h-1h-1h-1h-1h-1h-1h-1h-1h-1h-1h-1h-1h-1
h-1h-1h-1h-1h-1h-1h-1h-1h-1h-1h-1h-1h-1h-1h-1h-1h-1h-1h-1h-1h-1h-1h-1h-1h-1h-1h-1h-1h-1h-1h-1h-1h-1h-1h-1h-1h-1h-1h-1h-1h-1h-1h-1h-1h-1h-1h-1h-1h-1h-1h-1h-1h-1h-1h-1h-1h-1h-1h-1h-9q-26 0 -41.5 12.5t-20 30t-5 35z" />
    <glyph glyph-name="hyphen" unicode="-" 
d="M102.5 699q-0.5 6 2.5 21.5t10 27.5t24.5 21.5t43.5 9.5h408q37 0 55.5 -22.5t19.5 -44.5v-23v-161v-9.5t-3.5 -21t-10 -27t-22.5 -21t-39 -9.5h-408q-24 0 -41 9t-24 22t-11 26t-4 22v9v161q0 4 -0.5 10z" />
    <glyph glyph-name="period" unicode="." horiz-adv-x="585" 
d="M102 219q0 106 60 178.5t131 72.5t130 -72.5t59 -178.5t-59 -178t-130 -72t-131 72.5t-60 177.5z" />
    <glyph glyph-name="slash" unicode="/" horiz-adv-x="940" 
d="M102 -410l3 14q219 827 259 982l257 1007q1 4 3.5 9.5t13 14.5t24.5 9h152q14 0 19.5 -8t3.5 -16l-2 -8q-226 -853 -266 -1008l-251 -984q-1 -6 -4.5 -15t-17.5 -24.5t-34 -15.5h-118q-25 0 -35 14.5t-7 28.5z" />
    <glyph glyph-name="zero" unicode="0" horiz-adv-x="1050" 
d="M102 779q0 814 423 814q422 0 422 -814t-422 -814q-423 0 -423 814zM393 779q0 -517 132 -517q134 0 134 517v53.5t-0.5 60.5t-2.5 70t-4.5 69t-7.5 71t-11.5 63.5t-16 58.5t-21 43t-27 31t-34.5 10q-30 0 -54 -27.5t-39 -76t-25 -102.5t-14.5 -118t-6.5 -111.5t-2 -94.5
z" />
    <glyph glyph-name="one" unicode="1" horiz-adv-x="692" 
d="M102 1273q0 22 0.5 119t0.5 117q0 18 9.5 28t19.5 11l9 1l205 -1l206 1h4t8.5 -2t11.5 -6t9 -12.5t4 -19.5q0 -4 -0.5 -48t-1.5 -116t-2.5 -159t-2 -197t-0.5 -210q0 -180 3.5 -442t3.5 -290q0 -17 -9 -26.5t-18 -10.5l-9 -1h-258q-14 0 -22.5 9.5t-10.5 19.5l-1 9
q6 579 6 732q0 43 -0.5 105t-1.5 120t-2 109.5t-1 84.5l-1 33q0 2 -14 2t-28 -1h-14l-60 -1q-5 0 -12 2t-19 12.5t-12 27.5z" />
    <glyph glyph-name="two" unicode="2" horiz-adv-x="1021" 
d="M102 1054q1 133 31 233.5t73 157t102.5 91.5t110.5 46t106 11q390 0 390 -481q0 -174 -63.5 -332t-240.5 -432q59 -2 123 -2q25 0 68 1t55 1q30 0 45.5 -18t15.5 -36l1 -17v-196v-8t-2.5 -17t-8 -21.5t-18.5 -17.5t-31 -8h-688q-27 0 -43 8.5t-19 21t-2 25t5 20.5l4 9
l379 660q97 168 116 317q9 53 2.5 89t-16.5 58t-26.5 33.5t-28.5 15.5t-23 4q-136 0 -136 -217q0 -46 -50 -46h-185q-24 0 -35 15.5t-11 31.5z" />
    <glyph glyph-name="three" unicode="3" horiz-adv-x="1038" 
d="M103 438q-6 66 52 66h105h103q24 0 37.5 -12.5t15.5 -22t4 -24.5q7 -84 35 -120.5t62 -36.5q17 0 33.5 3t39 16t38.5 34.5t27.5 63t11.5 97.5q0 169 -174 169q-2 0 -5.5 0.5t-13 5t-16.5 11.5t-12.5 22.5t-5.5 36.5q0 20 0.5 42.5t0.5 27.5q0 11 -0.5 29.5t-0.5 35.5
q0 23 13 36.5t27 15.5l13 1q17 0 37 6.5t44.5 22.5t40.5 53t16 89q0 49 -8.5 84.5t-19.5 52t-27.5 25t-25 9.5t-20.5 1h-1.5h-1.5q-25 0 -50 -29.5t-33 -85.5q-10 -56 -71 -56q-7 0 -33 1t-60 1q-30 0 -51 -1t-48 -1q-26 0 -39.5 15.5t-13.5 33.5v32q11 81 33.5 146
t49.5 106t64 71.5t67.5 45.5t69 24t61 10.5t49.5 1.5q87 0 156 -27t110.5 -69.5t68.5 -100t37 -112t10 -111.5q0 -246 -173 -312q-7 -3 -7 -6q0 -2 2 -4t4 -3l1 -1q55 -21 95.5 -59.5t60.5 -77.5t31.5 -90.5t14 -86t2.5 -77.5q0 -226 -107 -358.5t-317 -132.5q-28 0 -52.5 2
t-65 12.5t-73 28.5t-71 53.5t-66 83.5t-50 123.5t-30.5 169.5z" />
    <glyph glyph-name="four" unicode="4" horiz-adv-x="1095" 
d="M102 431v228q0 15 5 34.5t11 30.5l5 12q135 308 171 386q28 60 165 387q8 18 23.5 28t27.5 11l11 1h296h5t10 -2t13 -6t10.5 -12.5t4.5 -19.5q0 -3 -1 -148t-1 -184l2 -420q0 -2 0.5 -6t3 -13.5t6.5 -16.5t12.5 -13t20.5 -6h50q4 0 10.5 -0.5t17 -11t10.5 -30.5v-222
q0 -27 -9 -41.5t-18 -16.5l-9 -1h-49q-5 0 -13 -1t-21.5 -11t-13.5 -29l2 -291q-1 -4 -3.5 -10.5t-14 -17t-28.5 -10.5h-181q-28 0 -44.5 9.5t-18.5 19.5l-3 10v282q0 23 -13 35t-26 13l-13 1h-347q-66 0 -66 52zM389 719.5q0 -6.5 4 -12t12 -5.5h126q16 0 25 12.5t10 25.5
l1 12q3 114 3 202q0 252 -3 252q-5 0 -101 -253l-70 -200q-1 -2 -2 -5.5t-3 -12.5t-2 -15.5z" />
    <glyph glyph-name="five" unicode="5" horiz-adv-x="1026" 
d="M103 147l33 264q1 9 3.5 14.5t6 6.5t7 1t8 -3.5t8 -6t8 -7l6.5 -6.5q140 -122 237 -122q93 0 147 76.5t54 190.5q0 49 -10.5 88.5t-26.5 64t-39 43t-43 27.5t-44 14t-36 6t-24 1q-82 0 -208 -51q-4 -2 -10.5 -3t-16 5t-6.5 24q4 28 23.5 140t37.5 234q14 97 24 183
t14 130t5 48q3 18 21 28t34 11l16 1h513q4 0 10.5 -1t17.5 -11t11 -28v-210q0 -24 -14 -37.5t-28 -15.5l-13 -1h-288q-27 2 -31 -28l-13 -78t-15 -96q-1 -13 0 -18.5t3 -6.5l2 -1q55 11 89 11q32 0 68 -7.5t88.5 -37t93 -77.5t69.5 -140t29 -213q0 -117 -29 -220.5
t-85.5 -187t-149.5 -132t-212 -48.5q-105 0 -184.5 35t-150.5 105q-2 1 -4 4t-5 14t-1 24z" />
    <glyph glyph-name="six" unicode="6" horiz-adv-x="1064" 
d="M102 524q0 148 30.5 268.5t86.5 244.5q67 131 125 257q33 72 92 215q8 16 24.5 26t29.5 12l13 2h266q21 0 27.5 -10t3.5 -20l-4 -10l-213 -426q-2 -4 -4.5 -10t-9 -21.5t-6.5 -20.5t3 -8q28 7 56 7q65 0 124.5 -30.5t108 -90.5t77.5 -159.5t29 -225.5q0 -113 -26.5 -212
t-78.5 -177.5t-136.5 -124t-192.5 -45.5q-197 0 -311 152t-114 407zM401 522q0 -260 124 -260q35 0 61 23t38.5 53.5t20.5 71t9.5 66t1.5 48.5q0 28 -4 61.5t-15.5 82t-40.5 80t-71 31.5q-36 0 -62.5 -27t-38.5 -69.5t-17.5 -82t-5.5 -78.5z" />
    <glyph glyph-name="seven" unicode="7" horiz-adv-x="1060" 
d="M102 1278v231q0 17 10.5 27t21.5 12l10 1q190 -1 382 -1h176t156 0.5t67 0.5q20 0 27.5 -10.5t4.5 -20.5l-3 -10q-146 -473 -229 -729q-37 -114 -92 -297t-92 -308l-37 -126q-17 -39 -41 -39h-281q-23 0 -31.5 9.5t-5.5 19.5l3 10q182 518 250 731l133 438q1 3 2 7.5
t-4.5 12.5t-20.5 8l-66 1h-115l-183 -1q-5 0 -12 1t-18.5 9t-11.5 23z" />
    <glyph glyph-name="eight" unicode="8" horiz-adv-x="1064" 
d="M102 431q0 302 218 388l21 6l-21 7q-14 7 -30.5 17.5t-43.5 38t-47 62.5t-35 93t-15 126q0 90 23 165.5t68.5 134t120 91.5t171.5 33q77 0 139 -21t101 -51.5t67.5 -75t42 -82t21 -83t8.5 -67t1 -44.5q0 -250 -169 -337l-15 -7l15 -6q218 -86 218 -388q0 -71 -11 -133
t-40.5 -125t-76 -107.5t-123.5 -72.5t-178 -28q-82 0 -148.5 18.5t-110 48t-76.5 72t-50.5 83t-28 89t-13.5 83.5t-3 72zM419 425q0 -254 113 -254q39 0 65.5 30t37 78t14.5 84.5t4 72.5q0 42 -4.5 79t-16 77.5t-37.5 64t-63 23.5q-113 0 -113 -255zM445 1184
q0 -87 24.5 -157t62.5 -70q40 0 64.5 74.5t24.5 152.5q0 77 -23.5 136t-65.5 59q-39 0 -63 -59.5t-24 -135.5z" />
    <glyph glyph-name="nine" unicode="9" horiz-adv-x="1048" 
d="M102 1036q0 114 24 212t73 176.5t131 123.5t190 45q196 0 310 -152t114 -407q0 -148 -30 -269t-86 -244l-216 -470q-2 -5 -6 -12t-17.5 -18.5t-28.5 -11.5h-282q-22 0 -28.5 10.5t-1.5 20.5l4 11l226 465q4 13 -3 15t-15 -1q-24 -2 -35 -2q-137 0 -230 130t-93 378z
M390 1057q0 -271 128 -271q39 0 68 28.5t43 73.5t20 86.5t6 79.5q0 22 -1 39.5t-4 55.5t-11.5 66.5t-22 58.5t-37 46.5t-54.5 16.5q-37 0 -64 -25t-40 -57.5t-20.5 -77t-9 -70t-1.5 -50.5z" />
    <glyph glyph-name="colon" unicode=":" horiz-adv-x="585" 
d="M102 219q0 106 60 178.5t131 72.5t130 -72.5t59 -178.5t-59 -178t-130 -72t-131 72.5t-60 177.5zM102 887q0 106 60 178.5t131 72.5t130 -72.5t59 -178.5t-59 -178t-130 -72t-131 72.5t-60 177.5z" />
    <glyph glyph-name="semicolon" unicode=";" horiz-adv-x="690" 
d="M102.5 -221.5q-0.5 17.5 1.5 29.5l3 13l111 487q1 3 2 7.5t7 16.5t14 21.5t23.5 17t34.5 7.5h184h7.5t16.5 -2t17 -9.5t10 -22t-5 -39.5q-5 -15 -34.5 -108t-63.5 -199t-57 -177q-11 -34 -28.5 -59t-34 -36.5t-31.5 -17.5t-24 -6l-9 -1h1h1h1h1h-1h-1h-1h-1h-1h-1h-1h-1
h-1h-1h-1h-1h-1h-1h-1h-1h-1h-1h-1h-1h-1h-1h-1h-1h-1h-1h-1h-1h-1h-1h-1h-1h-1h-1h-1h-1h-1h-1h-1h-1h-1h-1h-1h-1h-1h-1h-1h-1h-1h-1h-1h-1h-1h-1h-1h-1h-1h-1h-1h-1h-1h-1h-1h-1h-1h-1h-1h-1h-1h-1h-1h-1h-1h-9q-26 0 -41.5 12.5t-20 30t-5 35zM206 887q0 106 60 178.5
t131 72.5t130 -72.5t59 -178.5t-59 -178t-130 -72t-131 72.5t-60 177.5z" />
    <glyph glyph-name="less" unicode="&#x3c;" horiz-adv-x="1136" 
d="M102 779q0 30 13 52t25 29l13 7l809 404q1 1 4 2t10 4t14 5t15 3t14 -1t10 -7.5t4 -14.5v-114q0 -6 -0.5 -16.5t-14.5 -34t-40 -36.5q-11 -6 -280 -135q-58 -28 -142 -67.5t-124.5 -59t-40.5 -20.5t41.5 -21t126.5 -60.5t143 -68.5q57 -27 118.5 -56.5t109 -52.5
t49.5 -24q24 -12 37.5 -32t15.5 -34l1 -14v-107q0 -2 -0.5 -6t-4 -12t-10 -12.5t-21.5 -3.5t-35 11l-809 405q-6 3 -14.5 10t-22.5 30t-14 48z" />
    <glyph glyph-name="equal" unicode="=" horiz-adv-x="1249" 
d="M102 552l1 15v110q1 0 0 5.5t1.5 13.5t6.5 15.5t14 13t24 5.5h93t198 -0.5t184 -0.5q69 0 178.5 0.5t193.5 0.5h93q27 0 41 -14t14 -28l1 -14v-107q-1 0 0 -5.5t-2 -14.5t-8 -17t-17 -14t-29 -6h-93.5t-193.5 0.5t-178 0.5q-71 0 -182.5 -0.5t-197.5 -0.5h-94
q-25 0 -36.5 14t-11.5 28zM102 922l1 14v110q1 0 0 5.5t1.5 13.5t6.5 15.5t14 13t24 5.5q7 0 93 -0.5t198 -0.5h184h178.5t193.5 0.5t93 0.5q27 0 41 -13.5t14 -27.5l1 -14v-108q-1 0 0 -5.5t-2 -14.5t-8 -17t-17 -14t-29 -6q-9 0 -93.5 0.5t-193.5 0.5h-178h-182.5
t-197.5 -0.5t-94 -0.5q-25 0 -36.5 14.5t-11.5 28.5z" />
    <glyph glyph-name="greater" unicode="&#x3e;" horiz-adv-x="1136" 
d="M102 309v107q0 2 0.5 6t3.5 14.5t8 20t16.5 21t26.5 18.5q2 1 49.5 24t109 52.5t118.5 56.5q58 28 143 68.5t126.5 60.5t41.5 21t-40.5 20.5t-124.5 59t-142 67.5l-120 57.5t-111 53t-50 24.5q-26 13 -40 35t-15 37v15v114q0 20 18 22.5t36 -5.5l18 -8l809 -404
q2 -1 5.5 -2.5t12 -9t15 -16.5t12 -25t5.5 -35q0 -25 -12.5 -47t-24.5 -32l-13 -9q-737 -369 -810 -405q-35 -15 -51 -10t-18 19z" />
    <glyph glyph-name="question" unicode="?" horiz-adv-x="944" 
d="M105 1168q-5 67 0.5 126t28 115t60 96t101 64t146.5 24q195 0 297.5 -112t102.5 -291q0 -99 -23.5 -183t-61 -136.5t-76 -84.5t-75.5 -44q-23 -9 -23 -19v-105q0 -22 -11.5 -34t-22.5 -13l-12 -1h-207q-6 0 -14.5 0.5t-22.5 12.5t-14 35v210q0 23 12 35t24 13l11 1h57
q19 0 42 5.5t53.5 24t54.5 47t41 81t17 119.5q0 197 -125 197q-45 0 -72 -31.5t-33.5 -72t-0.5 -83.5q1 -5 3 -16t2.5 -17.5t-0.5 -14.5t-8 -12t-19 -4l-194 6q-32 1 -38 62zM243 219q0 106 60 178.5t131 72.5t130 -72.5t59 -178.5t-59 -178t-130 -72t-131 72.5t-60 177.5z
" />
    <glyph glyph-name="at" unicode="@" horiz-adv-x="1855" 
d="M102 779q0 178 64 331t173.5 258.5t259 165t318.5 59.5q136 0 252.5 -28t200.5 -74.5t151 -110.5t109.5 -133.5t71 -146t40 -144.5t11.5 -133q0 -95 -28 -175.5t-75 -135.5t-108 -94t-127 -57t-133 -18q-135 0 -214 123q-5 8 -8 8q-4 0 -12 -8q-54 -57 -119.5 -90
t-128.5 -33q-48 0 -95 10.5t-93 36t-80.5 63.5t-56 97t-21.5 132q0 134 67 252.5t180.5 189.5t241.5 71q55 0 104 -28.5t70 -67.5q7 -11 8 -11l5 14l5 24q0 2 1.5 5.5t6 11.5t10.5 14.5t17.5 12t25.5 5.5h112q27 0 38.5 -14.5t9.5 -29.5l-3 -15l-111 -511q-27 -117 84 -117
q39 0 76.5 8.5t78 32.5t71 60t50 96.5t19.5 137.5q0 153 -55.5 277t-151.5 204t-223.5 123t-273.5 43q-125 0 -233.5 -36t-189.5 -100t-139.5 -150.5t-88 -190t-29.5 -214.5q0 -142 41.5 -261.5t111 -200.5t161 -138t189.5 -83t199 -26q173 0 316 85q8 5 18.5 5.5t20.5 -8.5
l36 -54q15 -24 -17 -42q-91 -49 -178.5 -70t-195.5 -21q-141 0 -267 33.5t-230.5 101.5t-180 164.5t-117.5 228t-42 286.5zM663 708q0 -56 43 -108t113 -52q50 0 92 22t68 54.5t44.5 71.5t26 72.5t7.5 58.5q0 24 -4 46.5t-16.5 54t-43.5 51t-77 19.5q-73 0 -133 -47.5
t-90 -113.5t-30 -129z" />
    <glyph glyph-name="A" unicode="A" horiz-adv-x="1327" 
d="M104 65q90 357 175 714q36 150 76 324.5t64 278.5t26 113q6 24 25.5 37.5t35.5 15.5l17 1h281h7.5t16 -3t21.5 -8t19.5 -16.5t13.5 -26.5q2 -9 26 -113.5t64 -279.5t76 -325l175 -712q6 -27 -8 -41t-31 -14l-16 -1h-268q-18 0 -30.5 9.5t-15.5 19.5l-3 10l-36 200
q-3 13 -11.5 19.5t-15.5 6.5l-7 1h-235q-27 2 -34 -27l-36 -200q0 -2 -1 -4.5t-4.5 -9t-8.5 -12t-14.5 -9.5t-20.5 -4h-268h-7.5t-15.5 2.5t-18.5 7.5t-12.5 17t-1 29zM564 545q-3 -20 6 -30t19 -11h10h129q5 0 11.5 0.5t16.5 10.5t7 30l-98 686l-1 5l-2 -5z" />
    <glyph glyph-name="A" unicode="&#xc4;" horiz-adv-x="1327" 
d="M104 65q90 357 175 714q36 150 76 324.5t64 278.5t26 113q6 24 25.5 37.5t35.5 15.5l17 1h281h7.5t16 -3t21.5 -8t19.5 -16.5t13.5 -26.5q2 -9 26 -113.5t64 -279.5t76 -325l175 -712q6 -27 -8 -41t-31 -14l-16 -1h-268q-18 0 -30.5 9.5t-15.5 19.5l-3 10l-36 200
q-3 13 -11.5 19.5t-15.5 6.5l-7 1h-235q-27 2 -34 -27l-36 -200q0 -2 -1 -4.5t-4.5 -9t-8.5 -12t-14.5 -9.5t-20.5 -4h-268h-7.5t-15.5 2.5t-18.5 7.5t-12.5 17t-1 29zM564 545q-3 -20 6 -30t19 -11h10h129q5 0 11.5 0.5t16.5 10.5t7 30l-98 686l-1 5l-2 -5z" />
    <glyph glyph-name="A" unicode="&#xc3;" horiz-adv-x="1327" 
d="M104 65q90 357 175 714q36 150 76 324.5t64 278.5t26 113q6 24 25.5 37.5t35.5 15.5l17 1h281h7.5t16 -3t21.5 -8t19.5 -16.5t13.5 -26.5q2 -9 26 -113.5t64 -279.5t76 -325l175 -712q6 -27 -8 -41t-31 -14l-16 -1h-268q-18 0 -30.5 9.5t-15.5 19.5l-3 10l-36 200
q-3 13 -11.5 19.5t-15.5 6.5l-7 1h-235q-27 2 -34 -27l-36 -200q0 -2 -1 -4.5t-4.5 -9t-8.5 -12t-14.5 -9.5t-20.5 -4h-268h-7.5t-15.5 2.5t-18.5 7.5t-12.5 17t-1 29zM564 545q-3 -20 6 -30t19 -11h10h129q5 0 11.5 0.5t16.5 10.5t7 30l-98 686l-1 5l-2 -5z" />
    <glyph glyph-name="A" unicode="&#xc2;" horiz-adv-x="1327" 
d="M104 65q90 357 175 714q36 150 76 324.5t64 278.5t26 113q6 24 25.5 37.5t35.5 15.5l17 1h281h7.5t16 -3t21.5 -8t19.5 -16.5t13.5 -26.5q2 -9 26 -113.5t64 -279.5t76 -325l175 -712q6 -27 -8 -41t-31 -14l-16 -1h-268q-18 0 -30.5 9.5t-15.5 19.5l-3 10l-36 200
q-3 13 -11.5 19.5t-15.5 6.5l-7 1h-235q-27 2 -34 -27l-36 -200q0 -2 -1 -4.5t-4.5 -9t-8.5 -12t-14.5 -9.5t-20.5 -4h-268h-7.5t-15.5 2.5t-18.5 7.5t-12.5 17t-1 29zM564 545q-3 -20 6 -30t19 -11h10h129q5 0 11.5 0.5t16.5 10.5t7 30l-98 686l-1 5l-2 -5z" />
    <glyph glyph-name="A" unicode="&#xc1;" horiz-adv-x="1327" 
d="M104 65q90 357 175 714q36 150 76 324.5t64 278.5t26 113q6 24 25.5 37.5t35.5 15.5l17 1h281h7.5t16 -3t21.5 -8t19.5 -16.5t13.5 -26.5q2 -9 26 -113.5t64 -279.5t76 -325l175 -712q6 -27 -8 -41t-31 -14l-16 -1h-268q-18 0 -30.5 9.5t-15.5 19.5l-3 10l-36 200
q-3 13 -11.5 19.5t-15.5 6.5l-7 1h-235q-27 2 -34 -27l-36 -200q0 -2 -1 -4.5t-4.5 -9t-8.5 -12t-14.5 -9.5t-20.5 -4h-268h-7.5t-15.5 2.5t-18.5 7.5t-12.5 17t-1 29zM564 545q-3 -20 6 -30t19 -11h10h129q5 0 11.5 0.5t16.5 10.5t7 30l-98 686l-1 5l-2 -5z" />
    <glyph glyph-name="A" unicode="&#xc0;" horiz-adv-x="1327" 
d="M104 65q90 357 175 714q36 150 76 324.5t64 278.5t26 113q6 24 25.5 37.5t35.5 15.5l17 1h281h7.5t16 -3t21.5 -8t19.5 -16.5t13.5 -26.5q2 -9 26 -113.5t64 -279.5t76 -325l175 -712q6 -27 -8 -41t-31 -14l-16 -1h-268q-18 0 -30.5 9.5t-15.5 19.5l-3 10l-36 200
q-3 13 -11.5 19.5t-15.5 6.5l-7 1h-235q-27 2 -34 -27l-36 -200q0 -2 -1 -4.5t-4.5 -9t-8.5 -12t-14.5 -9.5t-20.5 -4h-268h-7.5t-15.5 2.5t-18.5 7.5t-12.5 17t-1 29zM564 545q-3 -20 6 -30t19 -11h10h129q5 0 11.5 0.5t16.5 10.5t7 30l-98 686l-1 5l-2 -5z" />
    <glyph glyph-name="B" unicode="B" horiz-adv-x="1132" 
d="M102 81q0 7 2 125.5t3.5 297t1.5 332.5q0 135 -1.5 284t-3.5 246t-2 106q0 37 18 56t36 20l19 1h414q89 0 158.5 -24t111 -62t68 -91t36 -105t9.5 -110q0 -241 -227 -317q-18 -7 0 -11q57 -16 106 -47t90 -78t64.5 -115.5t23.5 -150.5q0 -87 -23.5 -157.5t-58.5 -114.5
t-84.5 -76t-90.5 -47t-90 -23.5t-69.5 -9.5t-39.5 -1h-398h-8t-17.5 3.5t-22 10t-17.5 21.5t-8 37zM451 1301l1 -359h11t27 3t38.5 9t41 20t38.5 33.5t27 51.5t11 73q0 37 -11 66t-28 46t-38 29.5t-41.5 17.5t-37.5 7.5t-28 2.5h-11zM452 275q9 0 24.5 1.5t54.5 13.5
t69 31.5t54.5 61t24.5 97.5q0 54 -20.5 93.5t-47 58.5t-63 30.5t-57 13.5t-39.5 2v-403z" />
    <glyph glyph-name="C" unicode="C" horiz-adv-x="1050" 
d="M102 779q0 148 35 281t93.5 228.5t133 166t154 105.5t156.5 35q157 0 249 -46q24 -13 24 -39v-239q0 -30 -16.5 -37.5t-34.5 -1.5q-42 14 -114 14q-85 0 -161 -65.5t-123 -177t-47 -237.5q0 -114 45 -221t122 -174t164 -67q43 0 114 12q25 4 37.5 -5t12.5 -21l1 -11v-240
q0 -26 -20 -36q-103 -38 -266 -38q-137 0 -246.5 71t-176 188.5t-101.5 259.5t-35 295z" />
    <glyph glyph-name="D" unicode="D" horiz-adv-x="1175" 
d="M102 1480q0 33 17 50t34 18l17 1h298q142 0 251.5 -45.5t175 -117.5t107 -173t56.5 -199t15 -209q0 -126 -21 -240t-67.5 -216.5t-115.5 -177t-172 -118.5t-229 -44h-298q-3 0 -7.5 0.5t-16 4t-20.5 10t-16 21.5t-7 35q0 7 4 321t4 378q0 63 -4.5 376.5t-4.5 324.5z
M448 779l4 -401l2 -52q24 0 56.5 13t73.5 47.5t74.5 86t56.5 138.5t23 194q0 65 -13 132t-42.5 136.5t-88.5 113.5t-140 44l-2 -52q-4 -334 -4 -400z" />
    <glyph glyph-name="E" unicode="E" horiz-adv-x="886" 
d="M102 68l11 711l-11 711v6t3 14.5t8.5 18t18 14t29.5 6.5h570q23 0 35.5 -9t13.5 -18l2 -9v-245q0 -4 -0.5 -11t-13.5 -17.5t-38 -9.5q-46 1 -153 1h-114q-5 0 -8 -2.5t-3 -5.5v-3v-265q1 -17 12 -17h253q16 0 25 -8t10 -16v-7v-256q0 -3 -0.5 -8.5t-9.5 -14t-25 -8.5
h-253q-5 0 -8 -4t-4 -8v-5v-265q-1 -11 11 -11h114q107 0 153 1q25 1 38 -8.5t14 -19.5v-10v-245q0 -4 -1.5 -10t-14 -16t-35.5 -10h-570q-27 0 -42 14.5t-16 29.5z" />
    <glyph glyph-name="E" unicode="&#xca;" horiz-adv-x="886" 
d="M102 68l11 711l-11 711v6t3 14.5t8.5 18t18 14t29.5 6.5h570q23 0 35.5 -9t13.5 -18l2 -9v-245q0 -4 -0.5 -11t-13.5 -17.5t-38 -9.5q-46 1 -153 1h-114q-5 0 -8 -2.5t-3 -5.5v-3v-265q1 -17 12 -17h253q16 0 25 -8t10 -16v-7v-256q0 -3 -0.5 -8.5t-9.5 -14t-25 -8.5
h-253q-5 0 -8 -4t-4 -8v-5v-265q-1 -11 11 -11h114q107 0 153 1q25 1 38 -8.5t14 -19.5v-10v-245q0 -4 -1.5 -10t-14 -16t-35.5 -10h-570q-27 0 -42 14.5t-16 29.5z" />
    <glyph glyph-name="E" unicode="&#xc9;" horiz-adv-x="886" 
d="M102 68l11 711l-11 711v6t3 14.5t8.5 18t18 14t29.5 6.5h570q23 0 35.5 -9t13.5 -18l2 -9v-245q0 -4 -0.5 -11t-13.5 -17.5t-38 -9.5q-46 1 -153 1h-114q-5 0 -8 -2.5t-3 -5.5v-3v-265q1 -17 12 -17h253q16 0 25 -8t10 -16v-7v-256q0 -3 -0.5 -8.5t-9.5 -14t-25 -8.5
h-253q-5 0 -8 -4t-4 -8v-5v-265q-1 -11 11 -11h114q107 0 153 1q25 1 38 -8.5t14 -19.5v-10v-245q0 -4 -1.5 -10t-14 -16t-35.5 -10h-570q-27 0 -42 14.5t-16 29.5z" />
    <glyph glyph-name="E" unicode="&#xc8;" horiz-adv-x="886" 
d="M102 68l11 711l-11 711v6t3 14.5t8.5 18t18 14t29.5 6.5h570q23 0 35.5 -9t13.5 -18l2 -9v-245q0 -4 -0.5 -11t-13.5 -17.5t-38 -9.5q-46 1 -153 1h-114q-5 0 -8 -2.5t-3 -5.5v-3v-265q1 -17 12 -17h253q16 0 25 -8t10 -16v-7v-256q0 -3 -0.5 -8.5t-9.5 -14t-25 -8.5
h-253q-5 0 -8 -4t-4 -8v-5v-265q-1 -11 11 -11h114q107 0 153 1q25 1 38 -8.5t14 -19.5v-10v-245q0 -4 -1.5 -10t-14 -16t-35.5 -10h-570q-27 0 -42 14.5t-16 29.5z" />
    <glyph glyph-name="F" unicode="F" horiz-adv-x="886" 
d="M102 39q6 729 6 771l-6 680v6t3 14.5t8.5 18t18 14t29.5 6.5h570q23 0 35.5 -9t13.5 -18l2 -9v-245q0 -4 -0.5 -11t-13.5 -17.5t-38 -9.5q-46 1 -153 1h-114q-5 0 -8 -2.5t-3 -5.5v-3v-265q1 -17 12 -17h253q16 0 25 -8t10 -16v-7v-221q0 -3 -0.5 -8.5t-9.5 -14t-25 -8.5
h-227q-22 0 -22 -17v-68v-137v-147v-107l5 -123q1 -5 0.5 -13t-10.5 -21t-30 -13h-298q-4 0 -9.5 0.5t-14.5 8t-9 21.5z" />
    <glyph glyph-name="G" unicode="G" horiz-adv-x="1316" 
d="M102 768q0 128 15.5 242t55 223t99.5 187t155.5 125.5t217.5 47.5q178 0 316 -102t197 -281q16 -44 -9 -51q-86 -23 -146 -42l-147 -48q-5 -4 -9.5 -1.5t-7 3.5t-5.5 6t-4 7.5t-2 7.5l-2 5q-32 98 -69.5 138t-102.5 40q-98 0 -150 -137.5t-52 -360.5q0 -242 58 -358
t153 -116q79 0 135 70.5t63 191.5q0 9 -5 14t-10 6l-5 1l-177 -1q-31 -1 -31 22v268q0 13 8 19.5t16 7.5h8q217 -6 261 -6l258 6q11 0 15 -1.5t8 -13.5t5 -39q1 -34 1 -67q0 -49 -3 -97q-4 -80 -18.5 -170t-39.5 -167t-68 -149t-99 -122.5t-137.5 -80.5t-180.5 -30
q-119 0 -215.5 43.5t-160.5 118t-107.5 178t-62.5 218.5t-19 245z" />
    <glyph glyph-name="H" unicode="H" horiz-adv-x="1173" 
d="M103 82q7 601 7 698l-7 724q1 0 0 4.5t2 11.5t7.5 13.5t16.5 11t29 4.5h242q28 0 44 -16t18 -32l2 -16q-2 -131 -4 -206q-4 -106 -7 -323q0 -9 4 -14.5t8 -5.5l4 -1h235q16 0 16 21q-3 217 -7 323l-4 206q0 3 0.5 7t4 15t9.5 19.5t19 15.5t31 7h242q27 0 41 -11.5
t14 -22.5l1 -11q-7 -574 -7 -725l7 -697v-8t-3 -17.5t-8 -22t-17 -17.5t-29 -8h-240q-3 0 -7 1t-15.5 5.5t-20 12t-15.5 22.5t-7 35q0 12 3 106t3 123q0 18 1 75.5t2.5 128.5t1.5 89q0 8 -4 12.5t-8 4.5l-4 1h-235q-16 -1 -16 -18q0 -18 1.5 -89t2.5 -128.5t1 -75.5
q0 -29 3 -123t3 -106q0 -20 -6.5 -35t-16 -22.5t-19.5 -12t-16 -5.5l-7 -1h-240q-27 0 -41 18.5t-14 36.5z" />
    <glyph glyph-name="I" unicode="I" horiz-adv-x="555" 
d="M102 48q0 6 1.5 165.5t3 337.5t1.5 228t-1.5 227t-3 336.5t-1.5 166.5q0 20 12.5 30t25.5 10h12h251q5 1 13.5 0.5t22 -10t13.5 -29.5q0 -6 -1 -162.5t-1.5 -334t-0.5 -234.5t0.5 -234.5t1.5 -334t1 -162.5q0 -20 -12.5 -29.5t-25.5 -9.5h-12h-251q-5 0 -13.5 1t-22 10.5
t-13.5 27.5z" />
    <glyph glyph-name="I" unicode="&#xce;" horiz-adv-x="555" 
d="M102 48q0 6 1.5 165.5t3 337.5t1.5 228t-1.5 227t-3 336.5t-1.5 166.5q0 20 12.5 30t25.5 10h12h251q5 1 13.5 0.5t22 -10t13.5 -29.5q0 -6 -1 -162.5t-1.5 -334t-0.5 -234.5t0.5 -234.5t1.5 -334t1 -162.5q0 -20 -12.5 -29.5t-25.5 -9.5h-12h-251q-5 0 -13.5 1t-22 10.5
t-13.5 27.5z" />
    <glyph glyph-name="I" unicode="&#xcd;" horiz-adv-x="555" 
d="M102 48q0 6 1.5 165.5t3 337.5t1.5 228t-1.5 227t-3 336.5t-1.5 166.5q0 20 12.5 30t25.5 10h12h251q5 1 13.5 0.5t22 -10t13.5 -29.5q0 -6 -1 -162.5t-1.5 -334t-0.5 -234.5t0.5 -234.5t1.5 -334t1 -162.5q0 -20 -12.5 -29.5t-25.5 -9.5h-12h-251q-5 0 -13.5 1t-22 10.5
t-13.5 27.5z" />
    <glyph glyph-name="I" unicode="&#xcc;" horiz-adv-x="555" 
d="M102 48q0 6 1.5 165.5t3 337.5t1.5 228t-1.5 227t-3 336.5t-1.5 166.5q0 20 12.5 30t25.5 10h12h251q5 1 13.5 0.5t22 -10t13.5 -29.5q0 -6 -1 -162.5t-1.5 -334t-0.5 -234.5t0.5 -234.5t1.5 -334t1 -162.5q0 -20 -12.5 -29.5t-25.5 -9.5h-12h-251q-5 0 -13.5 1t-22 10.5
t-13.5 27.5z" />
    <glyph glyph-name="J" unicode="J" horiz-adv-x="815" 
d="M102 71v262q0 24 15.5 29.5t28.5 -2.5q65 -26 108 -26q59 0 83.5 33t24.5 130q6 212 6 441q0 117 -2 254.5t-4 227.5l-1 89q0 18 10.5 28t21.5 11l11 1h267h4.5t9.5 -2t12.5 -6t10 -12.5t4.5 -19.5q0 -3 -1 -93.5t-2.5 -227t-1.5 -250.5l-2 -403q0 -76 -3 -133.5
t-11.5 -119.5t-24 -106.5t-41.5 -86.5t-62 -67.5t-87 -41t-116 -15.5q-135 0 -224 45q-11 5 -22.5 23t-11.5 38z" />
    <glyph glyph-name="K" unicode="K" horiz-adv-x="1171" 
d="M102 48q0 1 4 338.5t4 391.5t-4 392t-4 339q0 18 10.5 28t20.5 11l10 1h268h4.5t9.5 -2t12.5 -6t10 -12.5t4.5 -19.5q0 -7 -2.5 -244t-2.5 -310q0 -26 5 -24q6 4 14 22q3 6 46.5 114.5t99 248.5t77.5 193q7 18 21.5 28t25.5 11l10 1h290q18 0 22.5 -10.5t-0.5 -20.5
l-4 -10q-346 -672 -346 -705q0 -10 28 -73t77 -165.5t91 -189t96 -195.5t65 -132q8 -17 -2 -27t-25 -11l-14 -1h-280q-6 0 -14.5 1t-26 11t-24.5 28q-21 55 -74 196t-95 252.5t-45 119.5q-4 10 -7 15t-4 5h-2q-5 0 -5 -17q0 -57 2.5 -309.5t2.5 -262.5q0 -18 -10 -27.5
t-20 -10.5l-11 -1h-267q-5 0 -12 1t-18.5 10.5t-11.5 27.5z" />
    <glyph glyph-name="L" unicode="L" horiz-adv-x="866" 
d="M102 48q0 5 1.5 162.5t3 335.5t1.5 233t-1.5 232.5t-3 335t-1.5 162.5q0 18 9.5 28t18.5 11l10 1h276q4 0 10 -1t16 -11t10 -28q0 -10 -1 -357t-1 -373t1 -205.5t1 -191.5q0 -18 8 -28t16 -11l9 -1h235h5t10 -2t13 -5t10.5 -9.5t4.5 -15.5q0 -15 -0.5 -59t-0.5 -69
q0 -35 0.5 -82.5t0.5 -51.5q0 -18 -11.5 -27.5t-22.5 -10.5l-11 -1h-577q-4 0 -10.5 1t-17.5 10.5t-11 27.5z" />
    <glyph glyph-name="M" unicode="M" horiz-adv-x="1501" 
d="M103 49q19 182 70 675l68 749l3 36q2 20 11.5 30t18.5 10h8h284q4 0 9.5 -1t16.5 -11t14 -28q27 -168 62 -371q3 -15 13.5 -77.5t18 -106.5t18 -99t19 -89t13.5 -43q15 24 83 415q35 203 62 371q3 18 13 28t18 11l9 1h284q4 0 9.5 -0.5t16 -10t12.5 -29.5l70 -785
q26 -257 71 -675q2 -18 -5.5 -28t-16.5 -11l-8 -1h-278q-3 0 -7.5 0.5t-13 10t-9.5 27.5q-16 290 -22 361l-32 407q-58 -336 -69 -406l-57 -362q-1 -4 -2.5 -10.5t-10.5 -17t-22 -10.5h-189q-13 0 -22 9.5t-11 19.5l-2 9q-46 292 -57 362l-69 406q-27 -336 -33 -407
l-22 -361q-1 -18 -8.5 -27.5t-14.5 -9.5l-7 -1h-277q-4 0 -9.5 1t-14 11t-6.5 28z" />
    <glyph glyph-name="N" unicode="N" horiz-adv-x="1228" 
d="M102 48q0 3 3.5 344t3.5 386t-3.5 386.5t-3.5 344.5q0 18 8 28t16 11l9 1h294h4t10 -2t13 -6t13.5 -12.5t12.5 -19.5q84 -210 148 -386l155 -384q2 316 3 385q-3 204 -3 385q0 18 10.5 28t20.5 11l11 1h255q5 0 12.5 -1t19.5 -11t12 -28q0 -3 -2.5 -343t-2.5 -387
t2.5 -388t2.5 -343q0 -18 -10 -27.5t-20 -10.5l-9 -1h-275q-5 0 -14 1t-26.5 10.5t-24.5 27.5l-147 393l-157 393q-2 -256 -2 -393q0 -60 0.5 -153.5t1 -164t0.5 -75.5q0 -18 -11.5 -27.5t-22.5 -10.5l-11 -1h-255q-5 0 -11.5 1t-18 10.5t-11.5 27.5z" />
    <glyph glyph-name="O" unicode="O" horiz-adv-x="1376" 
d="M102 779q0 126 20 241.5t65 221t111.5 182.5t166.5 123t223 46t223 -46t166 -123t111 -183t65 -221t20 -241t-20 -241t-65 -221t-111 -183t-166 -123t-223 -46t-223 46t-166.5 123t-111.5 182.5t-65 221t-20 241.5zM463 779q0 -216 60.5 -356.5t164.5 -140.5
q107 0 165.5 139.5t58.5 357.5q0 214 -61 355t-163 141q-68 0 -120 -66t-78.5 -178t-26.5 -252z" />
    <glyph glyph-name="O" unicode="&#xd6;" horiz-adv-x="1376" 
d="M102 779q0 126 20 241.5t65 221t111.5 182.5t166.5 123t223 46t223 -46t166 -123t111 -183t65 -221t20 -241t-20 -241t-65 -221t-111 -183t-166 -123t-223 -46t-223 46t-166.5 123t-111.5 182.5t-65 221t-20 241.5zM463 779q0 -216 60.5 -356.5t164.5 -140.5
q107 0 165.5 139.5t58.5 357.5q0 214 -61 355t-163 141q-68 0 -120 -66t-78.5 -178t-26.5 -252z" />
    <glyph glyph-name="O" unicode="&#xd5;" horiz-adv-x="1376" 
d="M102 779q0 126 20 241.5t65 221t111.5 182.5t166.5 123t223 46t223 -46t166 -123t111 -183t65 -221t20 -241t-20 -241t-65 -221t-111 -183t-166 -123t-223 -46t-223 46t-166.5 123t-111.5 182.5t-65 221t-20 241.5zM463 779q0 -216 60.5 -356.5t164.5 -140.5
q107 0 165.5 139.5t58.5 357.5q0 214 -61 355t-163 141q-68 0 -120 -66t-78.5 -178t-26.5 -252z" />
    <glyph glyph-name="O" unicode="&#xd4;" horiz-adv-x="1376" 
d="M102 779q0 126 20 241.5t65 221t111.5 182.5t166.5 123t223 46t223 -46t166 -123t111 -183t65 -221t20 -241t-20 -241t-65 -221t-111 -183t-166 -123t-223 -46t-223 46t-166.5 123t-111.5 182.5t-65 221t-20 241.5zM463 779q0 -216 60.5 -356.5t164.5 -140.5
q107 0 165.5 139.5t58.5 357.5q0 214 -61 355t-163 141q-68 0 -120 -66t-78.5 -178t-26.5 -252z" />
    <glyph glyph-name="O" unicode="&#xd3;" horiz-adv-x="1376" 
d="M102 779q0 126 20 241.5t65 221t111.5 182.5t166.5 123t223 46t223 -46t166 -123t111 -183t65 -221t20 -241t-20 -241t-65 -221t-111 -183t-166 -123t-223 -46t-223 46t-166.5 123t-111.5 182.5t-65 221t-20 241.5zM463 779q0 -216 60.5 -356.5t164.5 -140.5
q107 0 165.5 139.5t58.5 357.5q0 214 -61 355t-163 141q-68 0 -120 -66t-78.5 -178t-26.5 -252z" />
    <glyph glyph-name="O" unicode="&#xd2;" horiz-adv-x="1376" 
d="M102 779q0 126 20 241.5t65 221t111.5 182.5t166.5 123t223 46t223 -46t166 -123t111 -183t65 -221t20 -241t-20 -241t-65 -221t-111 -183t-166 -123t-223 -46t-223 46t-166.5 123t-111.5 182.5t-65 221t-20 241.5zM463 779q0 -216 60.5 -356.5t164.5 -140.5
q107 0 165.5 139.5t58.5 357.5q0 214 -61 355t-163 141q-68 0 -120 -66t-78.5 -178t-26.5 -252z" />
    <glyph glyph-name="P" unicode="P" horiz-adv-x="1089" 
d="M102 48q0 1 4 336.5t4 393.5q0 57 -4 393.5t-4 337.5q0 18 11.5 28t22.5 11l12 1h303q105 0 195 -30t151.5 -78t105 -109t63.5 -124t20 -122q0 -77 -18.5 -151.5t-56.5 -140.5t-91.5 -116t-129.5 -79.5t-165 -29.5q-1 -1 -8 0t-18 -1.5t-22 -6t-18.5 -12.5t-7.5 -22v-242
q0 -52 1 -145v-92q0 -18 -9 -27.5t-17 -10.5l-9 -1h-281q-4 0 -9.5 1t-15 10.5t-9.5 27.5zM452 884q0 -12 8 -19t16 -9l7 -1q17 0 39 4t52 17.5t53.5 34.5t40.5 59.5t17 88.5q0 54 -20 95t-51.5 63t-64.5 33t-66 11q-3 0 -8.5 -1.5t-14 -9.5t-8.5 -20v-346z" />
    <glyph glyph-name="Q" unicode="Q" horiz-adv-x="1390" 
d="M102 779q0 125 20 240t65 220.5t111.5 183.5t166.5 124t223 46q118 0 216.5 -45t165.5 -122.5t113.5 -182t68 -221.5t21.5 -243q0 -312 -113 -512q-12 -19 -3 -31l112 -143q2 -2 4 -6t7 -14.5t6.5 -20.5t-2 -22t-13.5 -21q-16 -14 -48 -36.5t-55 -38.5l-24 -16
q-2 -2 -6 -4t-14.5 -7t-20.5 -6.5t-21.5 1t-19.5 12.5l-93 114q-8 11 -34 -3q-106 -60 -247 -60q-123 0 -223 46.5t-166.5 125t-111.5 184.5t-65 220.5t-20 237.5zM463 779q0 -78 12.5 -153.5t38 -142.5t71 -108t103.5 -41q31 0 53 13q13 6 3 16l-116 141q-3 3 -5.5 9
t-0.5 19.5t17 23.5q93 62 157 106q25 17 45 -10l50 -60q9 -11 12 8q9 49 9 179t-27 238.5t-79 174t-118 65.5q-67 0 -119 -66.5t-79 -174.5t-27 -237z" />
    <glyph glyph-name="R" unicode="R" horiz-adv-x="1087" 
d="M102 48q0 381 5 731q-5 350 -5 730q0 18 10 28t20 11l9 1h354q26 0 56.5 -3t77 -15t88.5 -32t87 -56.5t77 -85t53 -123t21 -164.5q0 -28 -4.5 -61t-19.5 -79.5t-39 -88t-67.5 -83.5t-99.5 -69q-10 -5 -10 -20q0 -16 11 -43q67 -168 129 -305q26 -58 56.5 -124t48 -103.5
t20.5 -45.5q8 -20 -1.5 -29.5t-22.5 -9.5h-14h-230h-5.5t-12.5 2t-17 6t-16.5 12t-13.5 19q-4 8 -21 52t-42.5 109.5t-38.5 98.5q-16 40 -44.5 105t-48.5 110l-21 45q-4 -183 -4 -262q0 -47 2 -151.5t2 -106.5q0 -18 -9.5 -27.5t-19.5 -10.5l-9 -1h-254q-4 0 -10 1
t-16.5 10.5t-10.5 27.5zM431 888q0 -14 9.5 -22.5t19.5 -9.5l9 -2q88 0 141.5 64t53.5 142q0 84 -55.5 142t-146.5 58q-3 0 -8.5 -0.5t-14 -8t-8.5 -20.5v-343z" />
    <glyph glyph-name="S" unicode="S" horiz-adv-x="991" 
d="M102 1129q0 214 101 339t291 125q127 0 251 -49q40 -15 40 -53v-282q0 -7 -1 -11.5t-3 -7t-5 -3.5t-5 -1t-6 1.5t-5.5 2.5t-5.5 4l-5 2q-121 64 -174 64q-77 0 -110 -40q-26 -31 -26 -74q0 -12 2 -24q4 -32 37.5 -68t98 -89.5t97.5 -86.5q213 -173 213 -432
q0 -25 -2.5 -54.5t-12.5 -79t-26.5 -93.5t-48.5 -92t-75 -82.5t-109.5 -57t-147.5 -22.5q-91 0 -160.5 23t-152.5 75q-32 19 -32 50v326q0 34 45 3q166 -108 263 -108q39 0 67.5 14.5t41 35.5t18 38t5.5 30q0 68 -35.5 126t-146.5 133q-134 88 -205 188t-71 230z" />
    <glyph glyph-name="T" unicode="T" horiz-adv-x="1009" 
d="M102 1260v249q0 19 9.5 29t18.5 10l9 1h723q5 0 12.5 -1t19.5 -11t12 -28v-249q0 -20 -11 -29.5t-23 -9.5h-11h-163q-19 0 -19 -15q0 -1 -0.5 -24t-0.5 -63.5t-0.5 -91t-1 -117.5t-0.5 -131q0 -162 1.5 -429.5t1.5 -302.5q0 -17 -9 -26.5t-18 -10.5l-9 -1h-274
q-4 0 -11 1t-18 10.5t-11 27.5q0 1 1 119.5t2 294t1 317.5q0 64 -0.5 130t-1 116.5t-1 91t-1 64.5t-0.5 25q0 8 -5 12t-10 4l-5 -1h-169q-4 0 -10.5 1t-17 10.5t-10.5 27.5z" />
    <glyph glyph-name="U" unicode="U" horiz-adv-x="1173" 
d="M102 631q2 319 2 444q0 55 -0.5 158t-1 186t-0.5 90q0 19 9.5 29t18.5 10l9 1h272h4.5t9.5 -2t12.5 -6t10 -12.5t4.5 -19.5q0 -5 -1 -89t-1.5 -187.5t-0.5 -157.5l3 -435q0 -56 0.5 -89t2.5 -72.5t5.5 -60.5t10 -45.5t16.5 -36t24 -22.5t32.5 -14.5t43.5 -3.5
q24 0 43 4.5t33 16.5t23.5 24.5t16 37.5t10.5 46.5t5.5 60.5t2 70t0.5 84q4 217 4 435q0 91 -1 194.5t-2 170t-1 69.5q0 18 9.5 28t19.5 11l9 1h273h4.5t9 -2t12 -6t9.5 -12.5t4 -19.5q0 -3 -0.5 -69.5t-1 -169.5t-0.5 -195l2 -444q0 -75 -3 -132t-14.5 -130t-31 -126.5
t-56 -108.5t-86.5 -90t-124.5 -57t-168.5 -22t-168.5 21.5t-125 55.5t-86.5 88.5t-56 107.5t-31.5 126t-14.5 131.5t-3 135.5z" />
    <glyph glyph-name="U" unicode="&#xdb;" horiz-adv-x="1173" 
d="M102 631q2 319 2 444q0 55 -0.5 158t-1 186t-0.5 90q0 19 9.5 29t18.5 10l9 1h272h4.5t9.5 -2t12.5 -6t10 -12.5t4.5 -19.5q0 -5 -1 -89t-1.5 -187.5t-0.5 -157.5l3 -435q0 -56 0.5 -89t2.5 -72.5t5.5 -60.5t10 -45.5t16.5 -36t24 -22.5t32.5 -14.5t43.5 -3.5
q24 0 43 4.5t33 16.5t23.5 24.5t16 37.5t10.5 46.5t5.5 60.5t2 70t0.5 84q4 217 4 435q0 91 -1 194.5t-2 170t-1 69.5q0 18 9.5 28t19.5 11l9 1h273h4.5t9 -2t12 -6t9.5 -12.5t4 -19.5q0 -3 -0.5 -69.5t-1 -169.5t-0.5 -195l2 -444q0 -75 -3 -132t-14.5 -130t-31 -126.5
t-56 -108.5t-86.5 -90t-124.5 -57t-168.5 -22t-168.5 21.5t-125 55.5t-86.5 88.5t-56 107.5t-31.5 126t-14.5 131.5t-3 135.5z" />
    <glyph glyph-name="U" unicode="&#xda;" horiz-adv-x="1173" 
d="M102 631q2 319 2 444q0 55 -0.5 158t-1 186t-0.5 90q0 19 9.5 29t18.5 10l9 1h272h4.5t9.5 -2t12.5 -6t10 -12.5t4.5 -19.5q0 -5 -1 -89t-1.5 -187.5t-0.5 -157.5l3 -435q0 -56 0.5 -89t2.5 -72.5t5.5 -60.5t10 -45.5t16.5 -36t24 -22.5t32.5 -14.5t43.5 -3.5
q24 0 43 4.5t33 16.5t23.5 24.5t16 37.5t10.5 46.5t5.5 60.5t2 70t0.5 84q4 217 4 435q0 91 -1 194.5t-2 170t-1 69.5q0 18 9.5 28t19.5 11l9 1h273h4.5t9 -2t12 -6t9.5 -12.5t4 -19.5q0 -3 -0.5 -69.5t-1 -169.5t-0.5 -195l2 -444q0 -75 -3 -132t-14.5 -130t-31 -126.5
t-56 -108.5t-86.5 -90t-124.5 -57t-168.5 -22t-168.5 21.5t-125 55.5t-86.5 88.5t-56 107.5t-31.5 126t-14.5 131.5t-3 135.5z" />
    <glyph glyph-name="U" unicode="&#xd9;" horiz-adv-x="1173" 
d="M102 631q2 319 2 444q0 55 -0.5 158t-1 186t-0.5 90q0 19 9.5 29t18.5 10l9 1h272h4.5t9.5 -2t12.5 -6t10 -12.5t4.5 -19.5q0 -5 -1 -89t-1.5 -187.5t-0.5 -157.5l3 -435q0 -56 0.5 -89t2.5 -72.5t5.5 -60.5t10 -45.5t16.5 -36t24 -22.5t32.5 -14.5t43.5 -3.5
q24 0 43 4.5t33 16.5t23.5 24.5t16 37.5t10.5 46.5t5.5 60.5t2 70t0.5 84q4 217 4 435q0 91 -1 194.5t-2 170t-1 69.5q0 18 9.5 28t19.5 11l9 1h273h4.5t9 -2t12 -6t9.5 -12.5t4 -19.5q0 -3 -0.5 -69.5t-1 -169.5t-0.5 -195l2 -444q0 -75 -3 -132t-14.5 -130t-31 -126.5
t-56 -108.5t-86.5 -90t-124.5 -57t-168.5 -22t-168.5 21.5t-125 55.5t-86.5 88.5t-56 107.5t-31.5 126t-14.5 131.5t-3 135.5z" />
    <glyph glyph-name="V" unicode="V" horiz-adv-x="1327" 
d="M104 1509q-4 18 3.5 28t17.5 11l10 1h309h4.5t10 -2t13.5 -6t12 -12.5t8 -19.5q1 -3 21 -102t41 -201.5t26 -130.5q18 -94 54.5 -267.5t42.5 -173.5q4 0 23.5 90t43.5 206.5t30 144.5q18 76 86 434q4 19 16.5 29t23.5 10l10 1h278h4.5t10.5 -2t12 -6t8 -12t0 -20
q-1 -5 -44.5 -167.5t-90 -340t-57.5 -222.5q-87 -360 -181 -731q-5 -19 -16.5 -29t-21.5 -10h-9h-263q-4 0 -10.5 1t-19.5 11.5t-18 28.5q-42 153 -190 729q-11 44 -59.5 222t-92.5 339.5t-46 168.5z" />
    <glyph glyph-name="W" unicode="W" horiz-adv-x="1880" 
d="M104 1509q-4 18 3 28t16 11l9 1h286h4.5t10 -2t14 -6t12.5 -12.5t8 -19.5q28 -159 56 -303l48 -261q42 -215 49 -215q3 0 13 42t22.5 108t23.5 129.5t22 124t13 72.5q6 28 18.5 99.5t23.5 136t12 67.5q3 18 15 28t22 11l10 1h235h5.5t12 -2t15.5 -6t14 -12.5t9 -19.5
q32 -181 56 -303q17 -93 55 -284.5t42 -191.5t96 476q6 33 57 303q4 18 17 28t25 11l11 1h273h5t10.5 -2t12.5 -6t8.5 -12.5t0.5 -19.5q0 -2 -11.5 -45t-30 -116.5t-34.5 -141.5q-61 -258 -98 -427q-13 -58 -82.5 -358t-87.5 -372q-4 -18 -14.5 -28t-18.5 -11l-9 -1h-279
q-4 0 -9.5 1t-15.5 11t-13 27q-1 5 -8 51t-19 124.5t-24 149.5q-12 75 -34 216.5t-33 207t-14 65.5t-20 -101.5t-38 -232.5t-25 -155l-50 -325q-1 -4 -3 -10.5t-11.5 -17.5t-21.5 -11h-279q-4 0 -10 1t-18 10.5t-16 26.5q-64 287 -168 732q-12 52 -92 383.5t-84 346.5z" />
    <glyph glyph-name="X" unicode="X" horiz-adv-x="1310" 
d="M104 38l5 10q364 719 364 774q0 19 -49 126t-105.5 220.5t-113 224.5t-58.5 116q-9 19 0 29t22 10l13 1h303h5t11.5 -2t16 -6t15.5 -12.5t13 -19.5t31 -86t49 -133.5t30 -58.5t29.5 59t48.5 134.5t29 84.5q7 17 24 27t31 12l13 1h285h5t10.5 -2t11 -6t7 -12t-3.5 -20
q-4 -9 -84.5 -171.5t-154 -318.5t-73.5 -179q0 -24 92 -222t184 -384l92 -186q1 -2 2 -4.5t2 -9t-1.5 -12t-12 -9.5t-25.5 -4h-307q-16 0 -30 10t-20 20l-6 10q-131 361 -150 361q-6 0 -45.5 -90t-76.5 -180l-36 -91q-2 -4 -6 -11t-19 -18t-31 -11h-306q-23 0 -29 9.5
t-1 19.5z" />
    <glyph glyph-name="Y" unicode="Y" horiz-adv-x="1239" 
d="M106 1509q-8 18 1 28t22 11l13 1h264h5.5t13 -2t17.5 -6t16.5 -12.5t13.5 -19.5q2 -5 12 -35t25.5 -75t31.5 -87l90 -237q56 160 83 239q42 120 67 195q6 18 21 28t27 11l12 1h258q24 0 31.5 -10.5t3.5 -20.5l-4 -11q-119 -247 -197 -432q-35 -82 -69.5 -169t-51.5 -133
l-18 -46q-4 -213 -4 -355l4 -325q-1 -4 -2.5 -10.5t-12 -17t-26.5 -10.5h-273q-15 0 -24.5 9.5t-11.5 19.5l-2 9q4 161 4 325l-4 355q-84 215 -141 348q-25 59 -71.5 162t-84 184.5t-39.5 87.5z" />
    <glyph glyph-name="Z" unicode="Z" horiz-adv-x="1138" 
d="M102.5 56.5q0.5 10.5 3.5 17.5l4 8q231 537 295 697q124 308 174 457q0 1 -7 2t-20.5 1.5t-29 1t-34.5 0.5t-35.5 -0.5t-34 -0.5h-26.5l-193 -4q-4 0 -11 0.5t-18 11t-11 30.5v231q0 4 1 11t11 18t28 11q25 0 159 -1.5t222 -1.5q108 0 253 2t146 1q23 0 36 -7t16 -16.5
t3 -19.5t-3 -17l-3 -7q-240 -577 -289 -703q-23 -58 -62.5 -166t-69 -191.5t-30.5 -88.5q-1 -4 49 -4t100 2l50 2l172 4q3 0 7.5 -0.5t16.5 -4t21 -10.5t16.5 -22.5t7.5 -37.5v-180q0 -3 -0.5 -8t-4.5 -17.5t-11 -22t-22.5 -17.5t-37.5 -8q-3 0 -137 2t-235 2
q-102 0 -247 -2t-154 -2q-27 0 -43 7.5t-19.5 18.5t-3 21.5z" />
    <glyph glyph-name="bracketleft" unicode="[" horiz-adv-x="628" 
d="M102 -397q0 73 1.5 488t1.5 495t-1.5 494t-1.5 488q0 25 13.5 39t26.5 16l14 2h318q22 0 35 -13.5t15 -27.5l1 -14v-80q0 -6 -1 -14.5t-13.5 -22.5t-34.5 -14h-62q-22 0 -32.5 -10.5t-10.5 -21.5v-11q-14 -662 -14 -810l14 -810q-1 -5 -0.5 -12.5t11 -19.5t32.5 -12h62
q22 0 34.5 -13t13.5 -25l1 -13v-80q0 -2 -0.5 -5.5t-3.5 -13t-7.5 -16.5t-15 -13t-24.5 -6h-318q-6 0 -15 1.5t-24 15.5t-15 39z" />
    <glyph glyph-name="bracketright" unicode="]" horiz-adv-x="628" 
d="M102 -319q0 2 0.5 5.5t3 12.5t7 15.5t15 12t24.5 5.5h62q22 0 32.5 11t9.5 22v11q14 662 14 810l-14 810q0 2 0.5 5t-1 10t-5.5 13t-13 10.5t-23 4.5h-62q-22 0 -34.5 12.5t-13.5 25.5l-2 13v80q0 2 0.5 6t3.5 13.5t8 16.5t15.5 13t24.5 6h318q2 0 5.5 -0.5t13 -3.5
t16.5 -8.5t12.5 -17t5.5 -27.5q0 -74 -1 -488t-1 -494t1 -494.5t1 -488.5q0 -25 -13.5 -39t-26.5 -16l-13 -1h-318q-22 0 -35 13.5t-15 27.5l-2 13v80z" />
    <glyph glyph-name="underscore" unicode="_" horiz-adv-x="1005" 
d="M102 -411l1 14v110q1 0 0 5.5t1.5 13.5t6.5 16t14 13.5t24 5.5q7 0 62.5 -0.5t137.5 -1t154 -0.5q69 0 147.5 0.5t132.5 1t63 0.5q27 0 41 -14t15 -28v-14v-107q-1 0 0 -5.5t-2 -14.5t-8 -17t-17 -14t-29 -6q-9 0 -63 0.5t-132.5 1t-147.5 0.5q-71 0 -152.5 -0.5t-137 -1
t-63.5 -0.5q-25 0 -36.5 14t-11.5 28z" />
    <glyph glyph-name="uni00A0" unicode="&#xa0;" horiz-adv-x="2084" 
 />
    <glyph glyph-name="sterling" unicode="&#xa3;" horiz-adv-x="1236" 
d="M102 544v124q0 4 0.5 10.5t10.5 17t29 10.5q4 0 30 -1t43 -1l77 2q-4 52 -28.5 187.5t-24.5 211.5q0 219 125.5 353.5t343.5 134.5q412 0 426 -448q0 -16 -9.5 -31.5t-29.5 -15.5h-203q-16 0 -25 9t-11 17l-1 9q0 71 -33.5 118.5t-105.5 47.5q-156 0 -156 -186
q0 -71 23.5 -206.5t25.5 -200.5q65 -2 129 -2q28 0 68 1t45 1q19 0 28 -10t9 -20v-9v-124q-1 -4 -2.5 -9.5t-11 -15t-24.5 -9.5q-3 0 -44 1t-70 1l-118 -2q-15 0 -18 -20q-6 -81 -19.5 -127.5t-51.5 -113.5q-6 -9 -6 -10q1 -1 6 -0.5t11 1.5l5 1q57 0 168.5 -22t170.5 -22
q105 0 198 36q41 18 41 -27v-178q0 -40 -37 -54q-67 -28 -154 -28q-89 0 -260 32t-259 32q-92 0 -182 -23q-2 -1 -8.5 -3t-10.5 -3t-10.5 -2.5t-10.5 -1t-8 1.5t-6 4.5t-2 9.5v204q0 9 2 16.5t6 13.5t7.5 9.5t9 8.5t6.5 6q56 60 78.5 110.5t22.5 127.5v8t-1.5 6t-4.5 5.5
t-9 1.5l-80 2l-70 -2q-4 0 -11 1t-18 9.5t-11 24.5z" />
    <glyph glyph-name="uni00AD" unicode="&#xad;" 
d="M102.5 699q-0.5 6 2.5 21.5t10 27.5t24.5 21.5t43.5 9.5h408q37 0 55.5 -22.5t19.5 -44.5v-23v-161v-9.5t-3.5 -21t-10 -27t-22.5 -21t-39 -9.5h-408q-24 0 -41 9t-24 22t-11 26t-4 22v9v161q0 4 -0.5 10z" />
    <glyph glyph-name="uni2000" unicode="&#x2000;" horiz-adv-x="916" 
 />
    <glyph glyph-name="uni2001" unicode="&#x2001;" horiz-adv-x="1833" 
 />
    <glyph glyph-name="uni2002" unicode="&#x2002;" horiz-adv-x="916" 
 />
    <glyph glyph-name="uni2003" unicode="&#x2003;" horiz-adv-x="1833" 
 />
    <glyph glyph-name="uni2004" unicode="&#x2004;" horiz-adv-x="611" 
 />
    <glyph glyph-name="uni2005" unicode="&#x2005;" horiz-adv-x="458" 
 />
    <glyph glyph-name="uni2006" unicode="&#x2006;" horiz-adv-x="305" 
 />
    <glyph glyph-name="uni2007" unicode="&#x2007;" horiz-adv-x="305" 
 />
    <glyph glyph-name="uni2008" unicode="&#x2008;" horiz-adv-x="229" 
 />
    <glyph glyph-name="uni2009" unicode="&#x2009;" horiz-adv-x="366" 
 />
    <glyph glyph-name="uni200A" unicode="&#x200a;" horiz-adv-x="101" 
 />
    <glyph glyph-name="uni2010" unicode="&#x2010;" 
d="M102.5 699q-0.5 6 2.5 21.5t10 27.5t24.5 21.5t43.5 9.5h408q37 0 55.5 -22.5t19.5 -44.5v-23v-161v-9.5t-3.5 -21t-10 -27t-22.5 -21t-39 -9.5h-408q-24 0 -41 9t-24 22t-11 26t-4 22v9v161q0 4 -0.5 10z" />
    <glyph glyph-name="uni2011" unicode="&#x2011;" 
d="M102.5 699q-0.5 6 2.5 21.5t10 27.5t24.5 21.5t43.5 9.5h408q37 0 55.5 -22.5t19.5 -44.5v-23v-161v-9.5t-3.5 -21t-10 -27t-22.5 -21t-39 -9.5h-408q-24 0 -41 9t-24 22t-11 26t-4 22v9v161q0 4 -0.5 10z" />
    <glyph glyph-name="figuredash" unicode="&#x2012;" 
d="M102.5 699q-0.5 6 2.5 21.5t10 27.5t24.5 21.5t43.5 9.5h408q37 0 55.5 -22.5t19.5 -44.5v-23v-161v-9.5t-3.5 -21t-10 -27t-22.5 -21t-39 -9.5h-408q-24 0 -41 9t-24 22t-11 26t-4 22v9v161q0 4 -0.5 10z" />
    <glyph glyph-name="endash" unicode="&#x2013;" horiz-adv-x="1394" 
d="M102 711l1 14v111q1 0 0 5.5t1.5 13.5t6.5 15.5t14 13t24 5.5q7 0 111 -0.5t234.5 -0.5h202.5h197t230.5 0.5t111.5 0.5q27 0 41 -14t15 -28v-14v-107q-1 0 0 -5.5t-2 -14.5t-8 -17t-17 -14t-29 -6q-9 0 -112 0.5t-230.5 0.5h-196.5h-201t-234 -0.5t-112 -0.5
q-25 0 -36.5 14t-11.5 28z" />
    <glyph glyph-name="emdash" unicode="&#x2014;" horiz-adv-x="2254" 
d="M102 699q-2 6 9 21.5t36.5 27.5t89 21.5t158.5 9.5h1482q135 0 202 -22.5t71 -44.5v-23v-161v-9.5t-12.5 -21t-36.5 -27t-82 -21t-142 -9.5h-1482q-87 0 -149 9t-87.5 22t-40 26t-14.5 22v9v161q0 4 -2 10z" />
    <glyph glyph-name="quoteleft" unicode="&#x2018;" horiz-adv-x="638" 
d="M103 904.5q-5 14.5 5 39.5q56 176 156 485q11 34 28.5 59t34 36.5t31.5 17.5t24 6l9 1h-1h-1h-1h-1h1h1h1h1h1h1h1h1h1h1h1h1h1h1h1h1h1h1h1h1h1h1h1h1h1h1h1h1h1h1h1h1h1h1h1h1h1h1h1h1h1h1h1h1h1h1h1h1h1h1h1h1h1h1h1h1h1h1h1h1h1h1h1h1h1h1h1h1h1h1h1h1h1h9
q41 0 56 -30.5t10 -60.5l-5 -30l-110 -486q-1 -3 -2 -7.5t-7 -17t-14 -22t-23.5 -17t-34.5 -7.5h-184h-7.5t-16.5 2t-17.5 9.5t-10.5 22z" />
    <glyph glyph-name="quoteright" unicode="&#x2019;" horiz-adv-x="638" 
d="M102.5 949.5q-0.5 17.5 1.5 30.5l3 12l111 486q1 3 2 7.5t7 17t14 22t23.5 17t34.5 7.5h184h7.5t16.5 -2t17 -9.5t10 -22t-5 -39.5q-90 -285 -155 -485q-11 -34 -28.5 -59t-34 -36.5t-31.5 -17.5t-24 -6l-9 -1h1h1h1h1h-1h-1h-1h-1h-1h-1h-1h-1h-1h-1h-1h-1h-1h-1h-1h-1
h-1h-1h-1h-1h-1h-1h-1h-1h-1h-1h-1h-1h-1h-1h-1h-1h-1h-1h-1h-1h-1h-1h-1h-1h-1h-1h-1h-1h-1h-1h-1h-1h-1h-1h-1h-1h-1h-1h-1h-1h-1h-1h-1h-1h-1h-1h-1h-1h-1h-1h-1h-1h-1h-1h-1h-1h-1h-9q-26 0 -41.5 12.5t-20 30.5t-5 35.5z" />
    <glyph glyph-name="quotedblleft" unicode="&#x201c;" horiz-adv-x="1064" 
d="M103 904.5q-5 14.5 5 39.5q21 66 208 485q23 52 55 82t52 34l20 4h-1h-1h-1h-1h1h1h1h1h1h1h1h1h1h1h1h1h1h1h1h1h1h1h1h1h1h1h1h1h1h1h1h1h1h1h1h1h1h1h1h1h1h1h1h1h1h1h1h1h1h1h1h1h1h1h1h1h1h1h1h1h1h1h1h1h1h1h1h1h1h1h1h1h1h1h1h1h1h9q25 0 41 -12.5t20 -30.5
t4.5 -35.5t-2.5 -30.5l-2 -12l-162 -486q-1 -3 -2 -7.5t-7 -17t-14 -22t-23.5 -17t-34.5 -7.5h-184h-7.5t-16.5 2t-17.5 9.5t-10.5 22zM529 904.5q-5 14.5 5 39.5q56 176 156 485q11 34 28.5 59t34 36.5t31.5 17.5t24 6l9 1h-1h-1h-1h-1h1h1h1h1h1h1h1h1h1h1h1h1h1h1h1h1h1
h1h1h1h1h1h1h1h1h1h1h1h1h1h1h1h1h1h1h1h1h1h1h1h1h1h1h1h1h1h1h1h1h1h1h1h1h1h1h1h1h1h1h1h1h1h1h1h1h1h1h1h1h1h1h1h1h9q26 0 41.5 -12.5t20 -30.5t5 -35.5t-1.5 -30.5l-3 -12l-111 -486q-1 -3 -2 -7.5t-7 -17t-14 -22t-23.5 -17t-34.5 -7.5h-184h-7.5t-16.5 2t-17.5 9.5
t-10.5 22z" />
    <glyph glyph-name="quotedblright" unicode="&#x201d;" horiz-adv-x="1058" 
d="M102.5 949.5q-0.5 17.5 1.5 30.5l3 12l111 486q1 3 2 7.5t7 17t14 22t23.5 17t34.5 7.5h184h7.5t16.5 -2t17 -9.5t10 -22t-5 -39.5q-90 -285 -155 -485q-11 -34 -28.5 -59t-34 -36.5t-31.5 -17.5t-24 -6l-9 -1h1h1h1h1h-1h-1h-1h-1h-1h-1h-1h-1h-1h-1h-1h-1h-1h-1h-1h-1
h-1h-1h-1h-1h-1h-1h-1h-1h-1h-1h-1h-1h-1h-1h-1h-1h-1h-1h-1h-1h-1h-1h-1h-1h-1h-1h-1h-1h-1h-1h-1h-1h-1h-1h-1h-1h-1h-1h-1h-1h-1h-1h-1h-1h-1h-1h-1h-1h-1h-1h-1h-1h-1h-1h-1h-1h-1h-9q-26 0 -41.5 12.5t-20 30.5t-5 35.5zM480 962l5 30l153 486q1 3 2 7.5t7 17t14 22
t23.5 17t34.5 7.5h184h7.5t16.5 -2t17 -9.5t10 -22t-5 -39.5q-14 -43 -79 -203t-119 -282q-15 -33 -33 -58t-34 -36t-30 -17.5t-22 -7.5l-8 -1h1h1h1h1h-1h-1h-1h-1h-1h-1h-1h-1h-1h-1h-1h-1h-1h-1h-1h-1h-1h-1h-1h-1h-1h-1h-1h-1h-1h-1h-1h-1h-1h-1h-1h-1h-1h-1h-1h-1h-1
h-1h-1h-1h-1h-1h-1h-1h-1h-1h-1h-1h-1h-1h-1h-1h-1h-1h-1h-1h-1h-1h-1h-1h-1h-1h-1h-1h-1h-1h-1h-1h-1h-1h-1h-1h-1h-9q-41 0 -56 30.5t-10 60.5z" />
    <glyph glyph-name="uni202F" unicode="&#x202f;" horiz-adv-x="366" 
 />
    <glyph glyph-name="uni205F" unicode="&#x205f;" horiz-adv-x="458" 
 />
    <glyph glyph-name="Euro" unicode="&#x20ac;" horiz-adv-x="1236" 
d="M102 613v67q0 9 6 14.5t12 5.5l6 1q30 -1 74 -2l77 1q5 0 8 1.5t4 5.5t1.5 6.5t0 7.5t-0.5 6q-2 34 -2 51q0 22 -15 22q-1 2 -66 2l-82 -2q-23 0 -23 22v64q0 10 6 16t12 6l7 1q35 -2 84 -2l64 1q18 0 21 37q11 101 36.5 193t70 176t103.5 145t142.5 97.5t182.5 36.5
q134 0 258 -44q14 -5 29 -19t15 -29v-256q0 -14 -4 -22t-8.5 -11t-13.5 -2t-14.5 3t-15.5 6t-13 5q-86 30 -171 30q-69 0 -121.5 -29t-83.5 -78t-48 -98t-26 -106q-6 -33 16 -34q102 -2 223 -2q49 0 103.5 0.5t91 1t39.5 0.5q13 0 20 -6.5t7 -13.5v-7v-58q0 -11 -7 -17
t-13 -7h-7l-232 2l-233 -2h-1q-1 0 -2.5 -0.5t-3 -1.5t-3.5 -2.5t-3.5 -4t-2.5 -6.5t-1 -9q0 -9 4 -47q3 -28 16 -29q111 -1 233 -1q48 0 101.5 0.5t88.5 1t39 0.5q14 0 20.5 -8.5t6.5 -16.5v-8v-50q0 -3 -0.5 -7.5t-7.5 -11.5t-20 -7q-3 0 -38 0.5t-88 1t-100 0.5l-217 -2
q-13 -2 -7 -25q69 -263 244 -263q95 0 184 33q1 0 10 4t13 5t12.5 3t13 0.5t10 -5t8 -12t2.5 -21.5v-239q0 -41 -50 -60q-121 -47 -249 -47q-92 0 -171 31.5t-137.5 86.5t-103.5 132t-73.5 165t-43.5 188q-3 22 -18 24l-88 2l-72 -2q-25 0 -25 21z" />
    <glyph glyph-name="uni25FC" unicode="&#x25fc;" horiz-adv-x="1024" 
d="M0 0z" />
  </font>
</defs>
</svg>
